<svg xmlns="http://www.w3.org/2000/svg" viewBox="0 0 132.77 85.45"><defs><style>.cls-1{fill:none;stroke:#d4d0ce;stroke-linecap:round;stroke-linejoin:round;stroke-width:1.5px;}</style></defs><title>Asset 129</title><g id="Layer_2" data-name="Layer 2"><g id="Layer_1-2" data-name="Layer 1"><line class="cls-1" x1="108.07" y1="75.97" x2="119.02" y2="84.7"/><line class="cls-1" x1="132.02" y1="57.71" x2="118.47" y2="54.61"/><line class="cls-1" x1="132.02" y1="27.74" x2="118.74" y2="30.77"/><line class="cls-1" x1="119.02" y1="0.75" x2="108.67" y2="9"/><line class="cls-1" x1="23.14" y1="8.24" x2="13.75" y2="0.75"/><line class="cls-1" x1="12.55" y1="30.44" x2="0.75" y2="27.74"/><line class="cls-1" x1="0.75" y1="57.71" x2="12.82" y2="54.95"/><line class="cls-1" x1="13.75" y1="84.7" x2="23.74" y2="76.73"/><path class="cls-1" d="M107.83,66.94a15.72,15.72,0,1,1,1-5.55"/><path class="cls-1" d="M100.8,56l-8,10.85-1.51,2a.89.89,0,0,1-1.51,0l-1.5-2-3-4.07"/><line class="cls-1" x1="75.8" y1="26.06" x2="83.74" y2="26.06"/><line class="cls-1" x1="52.11" y1="26.06" x2="71.77" y2="26.06"/><line class="cls-1" x1="75.8" y1="30.67" x2="83.74" y2="30.67"/><line class="cls-1" x1="52.11" y1="30.67" x2="71.77" y2="30.67"/><line class="cls-1" x1="75.8" y1="35.12" x2="83.74" y2="35.12"/><line class="cls-1" x1="52.11" y1="35.12" x2="71.77" y2="35.12"/><line class="cls-1" x1="52.11" y1="62.92" x2="71.77" y2="62.92"/><line class="cls-1" x1="82.07" y1="76.73" x2="46.26" y2="76.73"/><polyline class="cls-1" points="42.54 76.73 42.54 12.6 87.11 12.6 93.31 19.3 93.31 42.16"/><polyline class="cls-1" points="87.11 12.6 87.11 19.3 93.31 19.3"/><polyline class="cls-1" points="73.53 57.46 52.11 57.46 52.11 40.41 83.74 40.41 83.74 45.3"/></g></g></svg>