<svg xmlns="http://www.w3.org/2000/svg" viewBox="0 0 132.77 85.45"><defs><style>.cls-1{fill:none;stroke:#d4d0ce;stroke-linecap:round;stroke-linejoin:round;stroke-width:1.5px;}</style></defs><title>Asset 135</title><g id="Layer_2" data-name="Layer 2"><g id="Layer_1-2" data-name="Layer 1"><polygon class="cls-1" points="34.01 29.82 58.15 49.51 66.43 43.6 74.64 49.54 98.76 29.82 98.76 66.98 34.01 66.98 34.01 29.82"/><line class="cls-1" x1="34.01" y1="66.73" x2="66.43" y2="43.6"/><line class="cls-1" x1="66.43" y1="43.6" x2="98.43" y2="66.73"/><path class="cls-1" d="M34,29.82,60,12.36a11,11,0,0,1,12.25,0l26.5,17.46"/><line class="cls-1" x1="41.91" y1="29.82" x2="51.12" y2="23.62"/><line class="cls-1" x1="81.16" y1="23.62" x2="90.37" y2="29.82"/><line class="cls-1" x1="108.07" y1="75.97" x2="119.02" y2="84.7"/><line class="cls-1" x1="132.02" y1="57.71" x2="118.47" y2="54.61"/><line class="cls-1" x1="132.02" y1="27.74" x2="118.74" y2="30.77"/><line class="cls-1" x1="119.02" y1="0.75" x2="108.67" y2="9"/><line class="cls-1" x1="23.14" y1="8.24" x2="13.75" y2="0.75"/><line class="cls-1" x1="12.55" y1="30.44" x2="0.75" y2="27.74"/><line class="cls-1" x1="0.75" y1="57.71" x2="12.82" y2="54.95"/><line class="cls-1" x1="13.75" y1="84.7" x2="23.74" y2="76.73"/></g></g></svg>