<svg width="223" height="144" viewBox="0 0 223 144" fill="none" xmlns="http://www.w3.org/2000/svg">
<path d="M181.514 128.024L199.906 142.736" stroke="#B7B1AF" stroke-width="2" stroke-miterlimit="10" stroke-linecap="round" stroke-linejoin="round"/>
<path d="M221.74 97.2524L198.982 92.0283" stroke="#B7B1AF" stroke-width="2" stroke-miterlimit="10" stroke-linecap="round" stroke-linejoin="round"/>
<path d="M221.74 46.7471L199.435 51.8532" stroke="#B7B1AF" stroke-width="2" stroke-miterlimit="10" stroke-linecap="round" stroke-linejoin="round"/>
<path d="M199.906 1.26367L182.522 15.1665" stroke="#B7B1AF" stroke-width="2" stroke-miterlimit="10" stroke-linecap="round" stroke-linejoin="round"/>
<path d="M38.8659 13.8858L23.0945 1.26367" stroke="#B7B1AF" stroke-width="2" stroke-miterlimit="10" stroke-linecap="round" stroke-linejoin="round"/>
<path d="M21.0789 51.2971L1.2597 46.7471" stroke="#B7B1AF" stroke-width="2" stroke-miterlimit="10" stroke-linecap="round" stroke-linejoin="round"/>
<path d="M1.2597 97.2527L21.5324 92.6016" stroke="#B7B1AF" stroke-width="2" stroke-miterlimit="10" stroke-linecap="round" stroke-linejoin="round"/>
<path d="M23.0945 142.737L39.8736 129.306" stroke="#B7B1AF" stroke-width="2" stroke-miterlimit="10" stroke-linecap="round" stroke-linejoin="round"/>
<path d="M118.848 81.6984C131.613 69.329 131.949 48.9382 119.638 36.1307C107.309 23.3232 86.9863 22.9862 74.2214 35.3386C61.4564 47.6911 61.1205 68.0988 73.4319 80.9063C82.8041 90.6299 96.7951 93.1746 108.569 88.4055" stroke="#B7B1AF" stroke-width="2" stroke-miterlimit="10" stroke-linecap="round" stroke-linejoin="round"/>
<path d="M114.817 85.0006C129.396 74.8557 133.024 54.7851 122.913 40.1575C112.802 25.53 92.8145 21.9069 78.2356 32.0349C63.6567 42.1629 60.0288 62.2505 70.1399 76.878C77.8157 88.0003 91.2189 92.7694 103.614 89.9551" stroke="#B7B1AF" stroke-width="2" stroke-miterlimit="10" stroke-linecap="round" stroke-linejoin="round"/>
<path d="M74.8428 69.126C75.9345 71.3504 77.379 73.4569 79.1761 75.3275" stroke="#B7B1AF" stroke-width="2" stroke-miterlimit="10" stroke-linecap="round" stroke-linejoin="round"/>
<path d="M79.764 41.1182C73.2976 47.3871 71.0805 56.4029 73.1632 64.5592" stroke="#B7B1AF" stroke-width="2" stroke-miterlimit="10" stroke-linecap="round" stroke-linejoin="round"/>
<path d="M139.507 90.8316H134.804L126.675 82.7427C130.941 77.4006 133.881 70.8115 134.855 63.3461C137.156 45.6852 127.347 29.0692 110.82 22.5475C89.0186 13.9361 65.2355 26.356 59.2897 48.3984C54.5869 65.7896 62.481 83.619 77.379 92.1629" stroke="#B7B1AF" stroke-width="2" stroke-miterlimit="10" stroke-linecap="round" stroke-linejoin="round"/>
<path d="M86.432 95.9038C98.777 99.2573 111.34 96.2071 120.629 88.7754L128.741 96.9149V101.633L152.087 125.058C155.06 128.04 159.881 128.04 162.854 125.058C165.827 122.075 165.827 117.238 162.854 114.256L139.507 90.8313" stroke="#B7B1AF" stroke-width="2" stroke-miterlimit="10" stroke-linecap="round" stroke-linejoin="round"/>
</svg>
