<svg xmlns="http://www.w3.org/2000/svg" viewBox="0 0 132.77 85.45"><defs><style>.cls-1{fill:none;stroke:#d4d0ce;stroke-linecap:round;stroke-linejoin:round;stroke-width:1.5px;}</style></defs><title>Asset 127</title><g id="Layer_2" data-name="Layer 2"><g id="Layer_1-2" data-name="Layer 1"><line class="cls-1" x1="46.42" y1="6.4" x2="46.42" y2="15.81"/><line class="cls-1" x1="86.35" y1="6.4" x2="86.35" y2="15.81"/><line class="cls-1" x1="30.44" y1="26.85" x2="98.33" y2="26.85"/><path class="cls-1" d="M89.64,10.55h10.52a2.17,2.17,0,0,1,2.17,2.17V44.66"/><line class="cls-1" x1="49.71" y1="10.55" x2="83.06" y2="10.55"/><path class="cls-1" d="M76.7,71H32.61a2.17,2.17,0,0,1-2.17-2.17V12.72a2.17,2.17,0,0,1,2.17-2.17H43.13"/><path class="cls-1" d="M107.83,66.94a15.72,15.72,0,1,1,1-5.55"/><polyline class="cls-1" points="93.13 51.04 93.13 61.39 97.97 66.23"/><line class="cls-1" x1="108.07" y1="75.97" x2="119.02" y2="84.7"/><line class="cls-1" x1="132.02" y1="57.71" x2="118.47" y2="54.61"/><line class="cls-1" x1="132.02" y1="27.74" x2="118.74" y2="30.77"/><line class="cls-1" x1="119.02" y1="0.75" x2="108.67" y2="9"/><line class="cls-1" x1="23.14" y1="8.24" x2="13.75" y2="0.75"/><line class="cls-1" x1="12.55" y1="30.44" x2="0.75" y2="27.74"/><line class="cls-1" x1="0.75" y1="57.71" x2="12.82" y2="54.95"/><line class="cls-1" x1="13.75" y1="84.7" x2="23.74" y2="76.73"/></g></g></svg>