<svg xmlns="http://www.w3.org/2000/svg" viewBox="0 0 132.77 85.45"><defs><style>.cls-1{fill:none;stroke:#d4d0ce;stroke-linecap:round;stroke-linejoin:round;stroke-width:1.5px;}</style></defs><title>Asset 134</title><g id="Layer_2" data-name="Layer 2"><g id="Layer_1-2" data-name="Layer 1"><line class="cls-1" x1="108.07" y1="75.97" x2="119.02" y2="84.7"/><line class="cls-1" x1="132.02" y1="57.71" x2="118.47" y2="54.61"/><line class="cls-1" x1="132.02" y1="27.74" x2="118.74" y2="30.77"/><line class="cls-1" x1="119.02" y1="0.75" x2="108.67" y2="9"/><line class="cls-1" x1="23.14" y1="8.24" x2="13.75" y2="0.75"/><line class="cls-1" x1="12.55" y1="30.44" x2="0.75" y2="27.74"/><line class="cls-1" x1="0.75" y1="57.71" x2="12.82" y2="54.95"/><line class="cls-1" x1="13.75" y1="84.7" x2="23.74" y2="76.73"/><path class="cls-1" d="M69.18,75.42,96.94,47.67A20.17,20.17,0,1,0,68.42,19.13l-2,2-2-2A20.17,20.17,0,1,0,35.83,47.66L66.38,78.22"/><path class="cls-1" d="M36.83,26.32a15.52,15.52,0,0,0-1.56,6.79"/><path class="cls-1" d="M55.08,18.24A15.5,15.5,0,0,0,39.8,22.16"/></g></g></svg>