<svg xmlns="http://www.w3.org/2000/svg" viewBox="0 0 132.77 85.45"><defs><style>.cls-1{fill:none;stroke:#d4d0ce;stroke-linecap:round;stroke-linejoin:round;stroke-width:1.5px;}.cls-2{fill:#d4d0ce;}</style></defs><title>Asset 131</title><g id="Layer_2" data-name="Layer 2"><g id="Layer_1-2" data-name="Layer 1"><line class="cls-1" x1="108.07" y1="75.97" x2="119.02" y2="84.7"/><line class="cls-1" x1="132.02" y1="57.71" x2="118.47" y2="54.61"/><line class="cls-1" x1="132.02" y1="27.74" x2="118.74" y2="30.77"/><line class="cls-1" x1="119.02" y1="0.75" x2="108.67" y2="9"/><line class="cls-1" x1="23.14" y1="8.24" x2="13.75" y2="0.75"/><line class="cls-1" x1="12.55" y1="30.44" x2="0.75" y2="27.74"/><line class="cls-1" x1="0.75" y1="57.71" x2="12.82" y2="54.95"/><line class="cls-1" x1="13.75" y1="84.7" x2="23.74" y2="76.73"/><path class="cls-2" d="M105.89,27.1h-.12c-2.26,0-4.08,3.57-4.53,7-.53,4,.77,6.9,3.38,7.6a.55.55,0,0,0,.18,0,.68.68,0,0,0,.65-.49.67.67,0,0,0-.48-.82c-2.29-.62-2.74-3.57-2.4-6.13.44-3.36,2.05-5.87,3.2-5.87h.12c1.15,0,2.76,2.51,3.2,5.87.34,2.56-.11,5.51-2.4,6.13a.66.66,0,0,0-.5.66l.37,19.34c0,.19-.24.8-.73.8s-.68-.61-.73-.8l.33-17.2a.67.67,0,0,0-1.34,0l-.33,17.28a.66.66,0,0,0,0,.14,2.06,2.06,0,0,0,4.12,0,.66.66,0,0,0,0-.14l-.36-18.93c2.28-.93,3.37-3.71,2.88-7.43-.46-3.46-2.27-7-4.53-7Z"/><path class="cls-2" d="M98.18,27.32c-4.22,0-4.34,16.42-4.34,18.29a.67.67,0,0,0,1.34,0c0-8.71,1.2-14.64,2.33-16.4v32C96.3,61,96.3,60.23,96.3,60c0-1.73.22-12,.23-12.11a.67.67,0,0,0-.66-.69h0a.66.66,0,0,0-.67.66C95.18,48.23,95,58.2,95,60s1.2,2.63,3.22,2.63a.67.67,0,0,0,.67-.67V28a.68.68,0,0,0-.67-.67Z"/><path class="cls-2" d="M70.4,23.36a.67.67,0,1,0-.51,1.24,19.57,19.57,0,0,1,6.46,4.31,19.82,19.82,0,1,1-10.23-5.44.67.67,0,0,0,.26-1.32,21.23,21.23,0,1,0,4,1.21Z"/><path class="cls-2" d="M46,42.93a.67.67,0,0,0-1.34,0A17.7,17.7,0,0,0,57.83,60.05l.17,0a.67.67,0,0,0,.17-1.32A16.35,16.35,0,0,1,46,42.93Z"/><path class="cls-2" d="M61.77,59.27a.71.71,0,0,0-.7.65.69.69,0,0,0,.65.7h.61a.67.67,0,1,0,0-1.34Z"/><path class="cls-2" d="M62.33,69.69A26.76,26.76,0,1,1,89.1,42.93,26.79,26.79,0,0,1,62.33,69.69Zm0-54.86a28.1,28.1,0,1,0,28.11,28.1,28.13,28.13,0,0,0-28.11-28.1Z"/><path class="cls-2" d="M32.68,35.75c0-.32-.1-8-.1-8a.67.67,0,0,0-.67-.67.66.66,0,0,0-.65.62h0a.13.13,0,0,0,0,.05h0c0,.52.09,7.66.09,8s0,.63,0,.94c.06,2.22,0,3.23-2,3.69a.67.67,0,0,0-.51.67l.37,19.34c-.05.19-.25.8-.73.8s-.68-.72-.73-.92l.55-19.2a.67.67,0,0,0-.52-.67c-2.12-.49-2.2-1.67-2.18-4.08v-.57c0-.24.17-4.92.29-8a.69.69,0,0,0-.65-.7h0a.67.67,0,0,0-.66.65c0,.79-.29,7.73-.29,8.05v.56c0,2.15,0,4.37,2.69,5.25l-.54,18.75a.49.49,0,0,0,0,.12c.13.78.7,2.1,2.06,2.1a2.23,2.23,0,0,0,2.06-2,.57.57,0,0,0,0-.13l-.36-18.91c2.56-.85,2.51-2.9,2.46-4.89,0-.29,0-.59,0-.9Z"/><path class="cls-2" d="M27.48,36.26a.67.67,0,0,0,.67-.67V27.77a.67.67,0,0,0-1.34,0v7.82a.67.67,0,0,0,.67.67Z"/><path class="cls-2" d="M29.7,36.26a.67.67,0,0,0,.67-.67V27.77a.67.67,0,1,0-1.34,0v7.82a.67.67,0,0,0,.67.67Z"/></g></g></svg>