<?xml version="1.0" encoding="utf-8"?>
<!-- Generator: Adobe Illustrator 23.1.1, SVG Export Plug-In . SVG Version: 6.00 Build 0)  -->
<svg version="1.1" id="Layer_1" xmlns="http://www.w3.org/2000/svg" xmlns:xlink="http://www.w3.org/1999/xlink" x="0px" y="0px"
	 viewBox="0 0 441.6 136.7" style="enable-background:new 0 0 441.6 136.7;" xml:space="preserve">
<style type="text/css">
	.st0{fill:#D73F09;}
	.st1{fill:#FFFFFF;}
</style>
<title>osu-cascades</title>
<g>
	<g id="Art">
		<path class="st0" d="M119.9,44.2c0-7,3.8-11.2,10.4-11.2s10.4,4.3,10.4,11.2s-3.8,11.2-10.4,11.2S119.9,51.2,119.9,44.2z
			 M135.2,44.2c0-6.8-1.5-9.5-4.8-9.5s-4.9,2.6-4.9,9.5s1.5,9.5,4.9,9.5C133.7,53.7,135.1,51.1,135.2,44.2L135.2,44.2z"/>
		<path class="st0" d="M151.1,54l-0.5,1.2h-9v-1l1.5-0.7V43.3l-1.6-2.4v-0.4l5.6-1.8h0.8l-0.1,3.8h0.1c0.7-1.9,2.2-3.8,4.6-3.8
			c1.5-0.2,2.9,0.9,3.1,2.5c0,0.2,0,0.4,0,0.5c0.1,1.4-1,2.6-2.4,2.7c-0.1,0-0.1,0-0.2,0c-1.3,0.1-2.5-0.9-2.6-2.3
			c0-0.1,0-0.2,0-0.3c-1.1,0.5-2,1.3-2.7,2.3v9.2L151.1,54z"/>
		<path class="st0" d="M164.8,52.4c1.5,0,2.9-0.5,4-1.4l0.7,0.8c-1.2,2.7-3.4,3.7-6.6,3.7c-4.2,0-7.6-2.7-7.6-8.2s3.8-8.6,8.2-8.6
			c3.6,0,6.1,2.1,6.1,6c0,0.7-0.1,1.4-0.2,2.1h-9.5C160.2,50.1,161.7,52.4,164.8,52.4z M160.2,45h5.2c0.1-0.5,0.1-0.9,0.1-1.4
			c0-1.7-0.5-3.3-2.2-3.3S160.5,41.8,160.2,45z"/>
		<path class="st0" d="M181.6,51.9c3.5,0,5.7,1.7,5.7,5.2c0,4.5-4.5,6.2-9.4,6.2c-4.5,0-7.9-1-7.9-3.9c0-2.1,1.7-3.1,4.2-3.4v-0.1
			c-2.1-0.3-3.3-1.5-3.3-3.4s1.4-3.1,3.5-3.5c-2.1-0.5-3.5-2.5-3.4-4.6c0-3.3,2.4-5.8,7.1-5.8c2,0,4.1,0.4,5.9,1.2
			c-0.2-0.3-0.2-0.6-0.2-0.9c0-1,0.8-1.9,1.9-1.9c0,0,0.1,0,0.1,0c1.1,0,2,0.9,2,2c0,0,0,0.1,0,0.1c0.1,1.1-0.8,2.1-1.9,2.2
			c-0.1,0-0.2,0-0.3,0c-1-0.1-2-0.3-2.9-0.8v0.4c1.4,0.6,2.3,2,2.3,3.5c0,3.6-3.6,5.2-6.8,5.2c-0.8,0-1.5-0.1-2.3-0.3
			c-0.8,0.3-1.4,0.7-1.4,1.5s0.4,1.1,1.3,1.1L181.6,51.9z M174.2,58.8c0,2,1.4,2.9,4,2.9c2.9,0,5.1-0.8,5.1-3.2
			c0-1.4-0.7-2.3-2.9-2.3h-4.7C174.8,56.8,174.2,57.8,174.2,58.8z M178,40.3c-1.9,0-2.2,1.4-2.2,3.8s0.4,3.9,2.2,3.9
			s2.3-1.4,2.3-3.8S180,40.3,178,40.3z"/>
		<path class="st0" d="M194.8,55.5c-5,0-8.3-2.8-8.3-8.4s3.3-8.4,8.3-8.4s8.3,2.8,8.3,8.4S199.8,55.5,194.8,55.5z M194.8,53.8
			c2.5,0,3.1-2.5,3.1-6.7s-0.7-6.7-3.1-6.7s-3.1,2.4-3.1,6.7S192.3,53.8,194.8,53.8z"/>
		<path class="st0" d="M222.5,54.1l-0.5,1.1h-8.1v-1l1.5-0.7v-8.1c0-2.4-1.3-3.2-2.6-3.2c-1.1,0-2.1,0.5-2.9,1.3v10l2.2,0.7
			l-0.5,1.1h-8.1v-1l1.5-0.7V43.3l-1.6-2.4v-0.4l5.6-1.8h0.8l-0.1,3.2h0.1c1.2-2,3.3-3.3,5.7-3.2c2.7,0,4.8,1.9,4.8,5.7v9.1
			L222.5,54.1z"/>
		<path class="st0" d="M237.9,50.7c0-2-1-3-3.5-3.9l-2.7-1.1c-2.7-0.9-4.5-3.5-4.3-6.4c0-4.4,3.4-6.3,7-6.3c1.6,0,3.2,0.3,4.7,0.8
			L241,33l0.3,6.1l-1,0.2l-1.8-2.4c-0.9-1.5-2.5-2.4-4.2-2.4c-1.5-0.1-2.8,1-2.9,2.5c0,0.1,0,0.2,0,0.3c0,1.7,0.8,2.7,3,3.6l2.8,1.1
			c3.5,1.4,5,3.4,5,6.8c0,4.4-3.4,6.5-7.3,6.5c-1.8,0.1-3.5-0.4-5.1-1.2l-2,1.2l-0.6-7l1.1-0.2l1.8,2.6c1.2,1.9,2.6,2.9,4.7,2.9
			c1.6,0.2,3-1,3.1-2.5C237.9,51.1,238,50.9,237.9,50.7z"/>
		<path class="st0" d="M242.5,39.7l5.9-5.1h1.1V39h4.9l-0.3,1.9h-4.6v8.7c0,2.2,0.8,3,2.3,3c1,0,1.9-0.3,2.7-0.8l0.4,0.9
			c-1.2,1.8-3.2,2.9-5.4,2.8c-2.9,0-4.9-1.4-4.9-5.2v-9.4h-2.2L242.5,39.7z"/>
		<path class="st0" d="M268.9,51.6c0,1.7,0.6,2,2.3,1.8l0.1,0.7c-1.1,0.9-2.5,1.4-3.9,1.3c-1.6,0-2.9-0.7-3.2-2.4h-0.1
			c-0.8,1.7-2.5,2.4-4.5,2.4c-2.5,0-4.5-1.4-4.5-4.4c0-3.3,2.6-4.8,6.7-4.8c0.7,0,1.5,0.1,2.2,0.3v-1.5c0-2.2-1.4-3.2-3.5-3.2
			c-1.5,0-3.1,0.4-4.4,1.1l-0.4-1.1c1.7-2.2,4.4-3.4,7.2-3.3c3.1,0,6.1,1.4,6.1,5.9V51.6z M263.3,47.9c-2.2,0-3.4,0.6-3.4,2.5
			c-0.1,1.1,0.7,2.2,1.8,2.3c0.1,0,0.2,0,0.3,0c0.8,0,1.6-0.2,2.1-0.8v-4L263.3,47.9z"/>
		<path class="st0" d="M269.6,39.7l5.9-5.1h1.1V39h4.9l-0.3,1.9h-4.6v8.7c0,2.2,0.8,3,2.3,3c1,0,1.9-0.3,2.7-0.8l0.4,0.9
			c-1.2,1.8-3.2,2.9-5.4,2.8c-2.9,0-4.9-1.4-4.9-5.2v-9.4h-2.2V39.7z"/>
		<path class="st0" d="M291.2,52.4c1.5,0,2.9-0.5,4-1.4l0.7,0.8c-1.2,2.7-3.4,3.7-6.6,3.7c-4.2,0-7.5-2.7-7.5-8.2s3.8-8.6,8.2-8.6
			c3.6,0,6.1,2.1,6.1,6c0,0.7-0.1,1.4-0.2,2.1h-9.5C286.5,50.1,288,52.4,291.2,52.4z M286.5,45h5.2c0.1-0.5,0.1-0.9,0.1-1.4
			c0-1.7-0.5-3.3-2.2-3.3S286.9,41.8,286.5,45z"/>
		<path class="st0" d="M319.1,47.4c0,5.2-3.3,8.1-8.5,8.1s-8.9-2.2-8.9-7.9V35.4l-2.4-0.8l0.3-1.2h9.2l0.3,1.2l-2.4,0.8v12.1
			c0,3.9,1.8,5.5,4.8,5.5s5.1-1.8,5.1-5.7v-12l-2.8-0.8l0.3-1.2h7.1l0.3,1.2l-2.4,0.8L319.1,47.4z"/>
		<path class="st0" d="M339.6,54.1l-0.5,1.1h-8.1v-1l1.5-0.7v-8.1c0-2.4-1.3-3.2-2.6-3.2c-1.1,0-2.2,0.5-2.9,1.3v10l2.2,0.7
			l-0.5,1.1h-8.1v-1l1.5-0.7V43.3l-1.5-2.4v-0.4l5.6-1.8h0.8l-0.1,3.2h0.1c1.2-2,3.3-3.3,5.7-3.2c2.7,0,4.8,1.9,4.8,5.7v9.1
			L339.6,54.1z"/>
		<path class="st0" d="M348.5,54.1l-0.5,1.1h-8.1v-1l1.5-0.7V43.3l-1.6-2.4v-0.4l5.6-1.8h0.8v14.7L348.5,54.1z M343.9,30.7
			c1.7,0,3,1.3,3,3s-1.3,3-3,3s-3-1.3-3-3S342.2,30.7,343.9,30.7z"/>
		<path class="st0" d="M360.7,41l-2.3-0.7l0.2-1.2h6.2l0.2,1.2l-1.7,0.6l-5.5,14.3h-3.7l-5.5-13.9l-1.6-1.2l0.3-1.1h8.5l0.2,1.3
			l-2.4,0.6l2.2,6.4c0.5,1.4,0.9,2.8,1.1,4.3h0.1c0.3-1.5,0.8-2.9,1.3-4.3L360.7,41z"/>
		<path class="st0" d="M373,52.4c1.5,0.1,2.9-0.4,4-1.4l0.7,0.8c-1.2,2.7-3.4,3.7-6.6,3.7c-4.2,0-7.5-2.7-7.5-8.2s3.8-8.7,8.2-8.7
			c3.6,0,6.1,2.1,6.1,6c0,0.7-0.1,1.4-0.2,2.1h-9.5C368.4,50.1,369.9,52.4,373,52.4z M368.4,45h5.2c0.1-0.5,0.1-0.9,0.1-1.4
			c0-1.7-0.5-3.3-2.2-3.3S368.7,41.8,368.4,45z"/>
		<path class="st0" d="M388,54l-0.5,1.2h-9v-1l1.5-0.7V43.3l-1.5-2.4v-0.4l5.5-1.8h0.8l-0.1,3.8h0.1c0.7-1.9,2.2-3.8,4.6-3.8
			c1.6-0.2,3,0.9,3.1,2.5c0,0.2,0,0.3,0,0.5c0.1,1.4-1,2.6-2.4,2.7c-0.1,0-0.1,0-0.2,0c-1.3,0.1-2.5-1-2.6-2.3c0-0.1,0-0.2,0-0.3
			c-1.1,0.6-2,1.4-2.7,2.4v9.2L388,54z"/>
		<path class="st0" d="M393.5,49.8c2,3.2,3.3,4.1,5.4,4.1c1.5,0,2.5-0.5,2.5-2c0-1.2-0.7-1.8-2.4-2.4l-2.4-0.8c-2.5-0.8-4-2.3-4-5
			c0-3.6,2.5-5.2,5.8-5.2c1.2,0,2.4,0.2,3.5,0.7l2-0.7l0.1,4.8l-0.9,0.2c-1.5-2.4-2.9-3.4-4.7-3.4c-1.3,0-2.1,0.7-2.1,1.8
			s0.5,1.6,1.9,2.1l2.7,0.9c3,1,4.4,2.5,4.4,5.4c0,3.6-2.5,5.1-6.5,5.1c-1.4,0-2.7-0.3-4-0.8l-1.9,0.8l-0.4-5.4L393.5,49.8z"/>
		<path class="st0" d="M414.4,54.1l-0.5,1.1h-8.1v-1l1.5-0.7V43.3l-1.5-2.4v-0.4l5.6-1.8h0.8v14.7L414.4,54.1z M409.8,30.7
			c1.7,0,3,1.3,3,3s-1.3,3-3,3s-3-1.3-3-3S408.1,30.7,409.8,30.7z"/>
		<path class="st0" d="M413.5,39.7l5.9-5.1h1.1V39h4.9l-0.2,1.9h-4.6v8.7c0,2.2,0.8,3,2.3,3c1,0,1.9-0.3,2.7-0.8l0.4,0.9
			c-1.2,1.8-3.2,2.9-5.4,2.8c-2.9,0-4.9-1.4-4.9-5.2v-9.4h-2.2V39.7z"/>
		<path class="st0" d="M425.3,41.2l-1.7-1.1l0.3-1.1h8.6l0.2,1.3l-2.4,0.6l2.4,6.1c0.6,1.4,1,2.9,1.1,4.4h0.1c0.3-1.5,0.8-3,1.3-4.4
			l2-6l-2.3-0.7l0.2-1.2h6.2l0.2,1.2l-1.7,0.6l-5.4,14.6c-1.9,5.2-4,7.8-7.7,7.8c-2.3,0-3.4-1.4-3.4-3c-0.1-1.3,0.8-2.4,2.1-2.6
			c0.1,0,0.3,0,0.4,0c1.2-0.1,2.2,0.8,2.3,2c0,0.1,0,0.2,0,0.3c0,0.6-0.2,1.1-0.6,1.5c1.6-0.1,3.3-2.4,4.1-4.9L425.3,41.2z"/>
		<path class="st1" d="M107.5,48.5c-0.6-4.2-1.9-8.2-3.7-12c-1.2-2.6-3-4.9-5.2-6.8c-2.8-2.3-6.3-3.6-9.9-3.6c-1.7,0-3.4,0.2-5,0.7
			l5.3-11.4L78.2,7.7h-7.9c-1.3,0-2.8-1-4.7-2.3C62.4,3.1,57.9,0,50.3,0c-6.4,0-11.5,1.8-15.5,5.5c0,0-26,25.3-26.1,25.5l0,0
			c-1.6,1.7-2.9,3.5-3.9,5.6c-1.8,3.8-3,7.8-3.7,12c-1.8,9.7-1.4,19.6,1,29.1c2.8,10.1,7.5,19.4,14,27.6
			c8.2,10.6,19.5,20.2,33.4,28.5l4.8,2.9l4.8-2.9c13.9-8.4,25.2-18,33.4-28.5c6.5-8.2,11.2-17.6,14-27.6
			C108.9,68.2,109.2,58.2,107.5,48.5z"/>
		<path d="M46.6,37.8H32.1l-1.3,21.8c0.8,0.1,1.6,0.4,2.3,0.7L46.6,37.8z"/>
		<path d="M35.3,87.3h-0.1V89l0.7,0.3c1.4,0.6,3,0.8,4.5,0.8c1.7,0,3.3-0.3,4.8-0.9v-1.7c-1.5,0.8-3.1,1.1-4.8,1.1
			c-1.6,0-3.1-0.3-4.5-0.9L35.3,87.3z"/>
		<path d="M35.9,94.1l-0.6-0.3h-0.1v1.8l0.7,0.3c1.4,0.6,3,0.8,4.5,0.8c1.2,0,2.5-0.1,3.7-0.5v-1.7c-1.2,0.4-2.4,0.6-3.7,0.6
			C38.9,95.1,37.3,94.8,35.9,94.1z"/>
		<path d="M35.9,100.6l-0.6-0.3l-0.1-0.1v1.8c0.2,0.1,0.5,0.2,0.7,0.3c1.4,0.6,3,0.8,4.5,0.8c0.7,0,1.4,0,2.2-0.2v-1.6
			c-0.7,0.1-1.4,0.2-2.2,0.2C38.9,101.6,37.3,101.3,35.9,100.6z"/>
		<path d="M52.2,7.8C53.4,8,54.6,8.4,55.7,9c1.1,0.6,2.2,1.2,3.1,1.9c1.5,1.2,3.1,2.3,4.8,3.3v-2.7c-1.2-0.7-2.5-1.5-3.7-2.3
			c-1.1-0.7-2.3-1.3-3.6-1.8c-1.3-0.5-2.6-0.8-3.9-1c-1.3-0.2-2.7-0.2-4-0.1h-0.2v1.1h0.3C49.7,7.4,51,7.5,52.2,7.8z"/>
		<path d="M105.9,48.8c-0.6-4-1.8-7.9-3.5-11.5c-1.1-2.4-2.8-4.5-4.8-6.3c-2.5-2.1-5.6-3.3-8.9-3.2c-4.2-0.1-8.2,1.6-11.1,4.6
			l-4.8-5.2l0.8-1.7h6.6l-0.8,1.7h2.5L87.1,16l-9.4-6.7h-7.3c-1.8,0-3.5-1.1-5.6-2.6c-3.3-2.3-7.4-5.1-14.5-5.1
			c-6,0-10.7,1.6-14.4,5L19.2,22.9l0,0c0,0-9.4,9.1-9.4,9.2c-1.5,1.5-2.7,3.3-3.6,5.2c-1.7,3.6-2.9,7.5-3.5,11.5
			C1,58.3,1.3,68,3.7,77.3c2.7,9.9,7.4,19.1,13.7,27.1c8.1,10.4,19.2,19.9,33,28.2l4,2.4l4-2.4c13.8-8.3,24.9-17.7,33-28.2
			c6.4-8,11-17.2,13.7-27.1C107.4,67.9,107.7,58.2,105.9,48.8z M37.5,8.3c1.2-1.1,4.8-4.4,12.8-4.4c6.4,0,10,2.5,13.2,4.7
			c2.3,1.6,4.3,3,6.9,3H77l7.3,5.2l-3,6.4h-6.6c-1-0.1-1.9-0.4-2.6-1c-1-0.8-1.5-2-1.6-3.3h-1.2c0,0.8,0.1,1.6,0.3,2.4
			c0.3,0.8,0.7,1.5,1.2,2.2c0.3,0.3,0.5,0.5,0.8,0.8l-1.6,3.5l4.4,4.8h-3.4l-5.8-5h-1.4l4.3,5h-8.6l-5-5h-3c0.6-1.3,0.9-2.8,1-4.2
			c0-0.3,0-0.5,0-0.8l-0.1-0.8v-0.4l-0.1-0.4L52.3,20c-0.2-1-0.6-2.1-1.1-3c-0.5-0.9-1.1-1.8-1.9-2.5L49,14.1l-0.3-0.3l-0.6-0.5
			c-0.4-0.3-0.8-0.6-1.3-0.9c-1.4-0.8-3-1.3-4.6-1.5c-0.4,0-0.9-0.1-1.3-0.1v1.1c1.9,0.1,3.7,0.6,5.2,1.6c0.4,0.2,0.8,0.5,1.1,0.8
			c0.2,0.1,0.3,0.3,0.5,0.5l0.2,0.2l0.2,0.3c0.6,0.7,1.1,1.4,1.5,2.3c0.4,0.8,0.7,1.7,0.8,2.5l0.1,0.7v0.3v1c0,0.2,0,0.4,0,0.7
			c-0.2,1.8-0.8,3.4-1.9,4.9l-1.3,1.8h6.2l2.7,2.7H30.7v-9.4h-8.2L37.5,8.3z M25.9,41.5c-0.9,3.5-3.8,6-7.4,6.4c-0.3,0-0.5,0-0.8,0
			c-4.5,0-8.2-3.5-8.5-7.9c0-0.2,0-0.4,0-0.6c0-2.3,1-4.6,2.7-6.2l8.3-8.1h8.3v8.1L25.9,41.5z M102.7,76.7
			c-1.6,5.8-3.9,11.3-6.8,16.5l0,0L95.4,94L95,94.6l-0.5,0.8l-0.4,0.7l-0.4,0.7c-0.3,0.4-0.6,0.9-0.8,1.3l-0.3,0.5l-0.7,0.9
			l-0.4,0.5l-0.7,1l-0.3,0.5c-0.3,0.5-0.7,0.9-1,1.4l0,0l-1,1.3c-3.9,4.8-8.3,9.3-13,13.3c-3.8,3.2-7.8,6.2-11.9,9
			c-2,1.4-4.2,2.7-6.3,4l-2.8,1.7l0,0l-2.8-1.7c-13.5-8.1-24.4-17.4-32.3-27.6l-0.7-0.9l-0.5-0.6l-0.8-1.1l-0.3-0.4
			c-0.3-0.4-0.6-0.9-0.9-1.3L16,98.4c-0.3-0.5-0.6-1-1-1.4c0,0,0-0.1,0-0.1c-4-6.2-7.1-13-9-20.2c-2.3-9-2.7-18.3-1.1-27.5
			c0.4-2.8,1.1-5.5,2.1-8.1c0.3,1.7,0.9,3.3,1.9,4.6c-0.3,1.2-0.6,2.5-0.9,4c-0.4,2.3-0.7,4.5-0.8,6.8l15,7c0.3-0.4,0.5-0.8,0.9-1.2
			c0.2-0.3,0.5-0.5,0.7-0.7l-9.1-11.9c1.6,0.5,3.3,0.5,5,0.2L26,60.3c0.7-0.3,1.5-0.6,2.3-0.7l-0.9-15.5c0.3-0.6,0.6-1.3,0.8-2
			l2.2-7.2l0.1-0.3h48.2l0.3-0.4c2.5-2.8,6.1-4.3,9.8-4.2c2.7,0,5.3,1,7.4,2.7c1.8,1.5,3.2,3.4,4.2,5.5c1.6,3.5,2.7,7.1,3.3,10.9
			C105.3,58.3,105,67.7,102.7,76.7z"/>
		<path d="M77.5,17.4c0.7,0,1.2-0.6,1.2-1.2S78.2,15,77.5,15c-0.7,0-1.2,0.6-1.2,1.2C76.3,16.9,76.8,17.4,77.5,17.4L77.5,17.4z"/>
		<path d="M70.5,16.8L70.5,16.8c0.2-0.9,1-1.7,1.9-1.9v-1.2h-3.1v3.1H70.5z"/>
		<path d="M100.5,49.7c-1.3-7.5-4.4-16.5-11.7-16.5c-3.5-0.1-6.7,1.6-8.5,4.6H53.5L35.2,61.7c0.2,0.2,0.5,0.4,0.7,0.7
			c0.4,0.4,0.7,0.8,1,1.3L50,57.7l-1.1,4.8L37.8,66c0.2,0.8,0.3,1.7,0.3,2.5c-0.4-0.1-0.7-0.2-1.1-0.3c-0.4-0.1-0.7-0.3-1.1-0.4
			l-0.5-0.2l-1-0.5c-0.9-0.4-1.8-0.6-2.8-0.8l-0.5-0.1c-0.2,0-0.5,0-0.8-0.1h-0.8h-0.2h-0.8c-0.3,0-0.5,0-0.8,0.1l-0.5,0.1
			c-0.9,0.1-1.8,0.4-2.7,0.7c-0.4,0.2-0.8,0.3-1.1,0.5L23,67.8c-0.3,0.2-0.7,0.3-1,0.4c-0.4,0.1-0.7,0.2-1.1,0.3
			c0-0.9,0.1-1.8,0.3-2.6L7.1,61.2c0,1.7,0.1,3.3,0.2,4.9l0,0c0,0.2,0,0.3,0,0.5l0.1,1l0,0c0,0.2,0,0.5,0.1,0.8h0.9h0.4h0.1
			c0.3,0,0.7,0.1,0.9,0.1l0,0c1,0.2,2,0.5,2.8,1c1.8,1,3.9,1.5,5.9,1.5c2.1,0,4.1-0.4,5.9-1.4c0.4-0.2,0.8-0.4,1.3-0.6
			c1-0.4,2-0.6,3-0.6h1.3c1,0,2,0.2,2.9,0.6c0.5,0.2,0.9,0.4,1.4,0.6c1.8,1,3.9,1.5,6,1.4c2.1,0.1,4.2-0.4,6-1.4
			c0.3-0.2,0.7-0.3,1-0.4l-0.5,2.2l2.1-0.4l-0.5,2.3c-1,0.2-2,0.6-2.9,1.1c-1.6,0.9-3.3,1.3-5.1,1.2c-1.8,0-3.5-0.4-5.1-1.2
			c-1.8-1-3.8-1.4-5.8-1.4c-2,0-4,0.4-5.8,1.4c-1.6,0.9-3.3,1.3-5.1,1.2c-1.8,0-3.5-0.4-5.1-1.2c-0.9-0.5-1.9-0.8-2.9-1.1l0,0h-0.2
			l-0.3-0.1l-0.3-0.1H9.7l0,0c-0.4,0-0.9-0.1-1.4-0.1c0.1,0.5,0.2,1.1,0.4,1.6c0.3,0,0.6,0,0.9,0.1h0.3h0.2l0.5,0.1l0,0
			c0.2,0,0.3,0.1,0.5,0.1c0.6,0.2,1.2,0.5,1.8,0.8c1.8,1,3.8,1.4,5.8,1.4c2,0,4-0.4,5.8-1.4c1.6-0.9,3.3-1.3,5.1-1.2
			c1.8,0,3.5,0.4,5.1,1.2c1.8,1,3.8,1.4,5.8,1.4c2,0,4-0.4,5.8-1.4c0.6-0.3,1.2-0.5,1.9-0.7l-1,4.8c-0.6,0.2-1.2,0.5-1.7,0.7
			c-1.5,0.8-3.3,1.3-5,1.2c-1.7,0.1-3.5-0.4-5-1.2c-1.8-1-3.9-1.5-6-1.4c-2.1,0-4.1,0.4-5.9,1.4c-1.5,0.8-3.3,1.3-5,1.2
			c-1.7,0.1-3.5-0.4-5-1.2L12.6,80l0,0h-0.1l-0.1-0.1l0,0c-0.8-0.3-1.6-0.6-2.5-0.7c0.3,0.8,0.6,1.7,0.9,2.5l0,0
			c1.4,3.7,3.1,7.2,5.1,10.6c0.1,0.2,0.2,0.3,0.3,0.5s0.3,0.5,0.4,0.7l0.3,0.5l0.4,0.7l0.4,0.6l0.4,0.7c0.1,0.2,0.3,0.4,0.4,0.6
			l0.4,0.6l0.5,0.7l0.4,0.5l0.6,0.8l0.3,0.4l0.9,1.3c7.7,9.9,18.2,18.9,31.4,26.8l1.1,0.7l1.1-0.7c13.2-7.9,23.8-16.9,31.4-26.8l0,0
			l1.4-1.9c0.1-0.1,0.1-0.2,0.2-0.2c0.5-0.6,0.9-1.3,1.3-1.9l0.1-0.2c0.9-1.4,1.8-2.7,2.6-4.1c2.1-3.6,3.9-7.3,5.3-11.2l0,0
			c0.3-0.7,0.5-1.5,0.8-2.2c-0.9,0.1-1.7,0.4-2.5,0.7l0,0L96,80h-0.1l0,0l-1.1,0.5c-3.1,1.6-6.8,1.6-9.9,0c-3.7-1.9-8.2-1.9-11.9,0
			c-3.1,1.6-6.8,1.6-9.9,0c-0.5-0.2-1-0.5-1.7-0.7l-1.9-8.9l2.1,0.4l0,0l-1.3-5.6l6.9-6.9l4.6,3.3L79,55l7.1,7.2l4.6-3.3l8.2,8.3
			l2.1,2.1c0.1-0.7,0.2-1.4,0.2-2.2l0,0v-0.3c0-0.2,0-0.3,0-0.4l0,0C101.6,60.8,101.4,55.2,100.5,49.7z M87.1,50.8l0.1-0.4h2.6
			l0.8-2.5H91l0.8,2.5h2.6l0.1,0.4l-2.1,1.5l0.8,2.5l-0.3,0.3l-2.1-1.5l-2.1,1.5l-0.4-0.3l0.8-2.5L87.1,50.8z M81.5,50.5l-0.3,0.3
			L79,49.2l-2.1,1.5l-0.3-0.3l0.8-2.5l-2.1-1.5l0.1-0.4H78l0.8-2.5h0.4l0.8,2.5h2.6l0.1,0.4L80.7,48L81.5,50.5z M69.7,54.8l-0.3,0.3
			l-2.1-1.5l-2.1,1.5l-0.3-0.3l0.8-2.5l-2.1-1.5l0.1-0.4h2.6l0.8-2.5h0.4l0.8,2.5h2.6l0.1,0.4l-2.1,1.5L69.7,54.8z M60.1,84.1
			l-2.6-0.5l0,0l3.5,16.9l0,0l-6.8-2.7l-6.8,2.7l0,0L51,83.6l-2.6,0.5l0,0L51.8,68l0,0l-2,0.4L54.1,46h0.4l4.2,22.4l-2-0.4l0,0
			L60.1,84.1z M55.7,102.8l0.5,16h-3.8l0.6-16l0.1-2.6l1.3-0.6l1.3,0.6L55.7,102.8z M51,107.4l-0.1,1c-1.3,0-2.6,0.4-3.7,1
			c-2.1,1.1-4.4,1.7-6.8,1.6c-2.3,0.1-4.5-0.4-6.5-1.5l-0.3-0.1l-0.7-0.3h-0.1c-0.3-0.1-0.6-0.2-0.9-0.3l1-0.8l0,0l0,0l0.3-0.2
			c0.5,0.2,1,0.4,1.4,0.6l0.6,0.3c1.6,0.8,3.4,1.2,5.2,1.1c2,0.1,4-0.4,5.8-1.4c1.5-0.8,3.1-1.3,4.8-1.3V107.4z M73.3,108.5l0.6-0.3
			c0.5-0.2,0.9-0.4,1.4-0.6l1.3,1.1c-0.3,0.1-0.7,0.2-1,0.4l-0.1,0.1l-0.6,0.3l-0.3,0.1c-2,1-4.3,1.5-6.5,1.5
			c-2.4,0.1-4.7-0.5-6.8-1.6c-1.1-0.6-2.4-1-3.7-1l-0.1-1V107c1.7,0,3.3,0.4,4.8,1.2c1.8,1,3.8,1.4,5.8,1.4
			C69.9,109.7,71.7,109.3,73.3,108.5L73.3,108.5z M46.4,82.5L46.4,82.5L45.5,87l0,0l2.7-0.5l-3.8,18l7.2-3.6l-0.2,2.4l-0.2,2.1
			c-2,0-3.9,0.5-5.6,1.4c-1.6,0.8-3.3,1.2-5.1,1.2c-1.6,0.1-3.3-0.3-4.8-1l-0.3-0.2c-0.5-0.3-1.1-0.5-1.6-0.7V83.9h-0.1L32.1,85
			v21.4l-1.4,1.2l0,0V84.3l2.8-2.1l0.1,0.1l0.6,0.3l0.3,0.1c0.4,0.2,0.9,0.4,1.4,0.6l0,0c1.4,0.5,3,0.8,4.5,0.8
			C42.5,84,44.5,83.6,46.4,82.5L46.4,82.5z M62.2,82.5c3.2,1.6,7,1.9,10.4,0.7l0,0c0.5-0.2,1-0.4,1.4-0.6h0.1
			c0.2-0.1,0.5-0.2,0.8-0.4l0.1-0.1l2.8,2.1v23.4l0,0l-1.4-1.2V85.1l-1.6-1.2v22.2c-0.6,0.2-1.1,0.4-1.6,0.7l-0.3,0.2
			c-1.5,0.7-3.1,1.1-4.7,1c-1.8,0.1-3.5-0.4-5.1-1.2c-1.7-0.9-3.7-1.4-5.6-1.4l-0.2-2.1l-0.2-2.4l7.2,3.6l-0.5-2.3l-3.3-15.7
			l2.7,0.5l-1-4.5L62.2,82.5z"/>
		<path d="M72.6,89.3l0.7-0.3v-1.8h-0.1l-0.6,0.3c-1.4,0.7-2.9,1-4.5,0.9c-1.7,0-3.3-0.3-4.8-1.1v1.8C66.3,90.4,69.6,90.4,72.6,89.3
			L72.6,89.3z"/>
		<path d="M72.6,94.1c-1.4,0.7-2.9,1-4.5,0.9c-1.3,0-2.5-0.2-3.7-0.6v1.7c1.2,0.4,2.4,0.5,3.7,0.5c1.5,0,3.1-0.2,4.5-0.8l0.7-0.3
			v-1.8h-0.1L72.6,94.1z"/>
		<path d="M72.6,100.6c-1.4,0.7-2.9,1-4.5,1c-0.7,0-1.4-0.1-2.2-0.2v1.6c0.7,0.1,1.4,0.2,2.2,0.2c1.5,0,3.1-0.2,4.5-0.8
			c0.2-0.1,0.5-0.2,0.7-0.3v-1.8l-0.1,0.1L72.6,100.6z"/>
		<polygon points="15.5,41.6 16.4,42.2 25.7,29.4 25.7,27.8 24.2,27.8 		"/>
		<polygon points="68.5,73.9 68.5,68.4 66.2,68.4 66.2,69.7 66.9,69.7 66.9,73.9 		"/>
		<path d="M72.9,72.4c0.3,1.2,1.4,1.9,2.6,1.7c0.8-0.2,1.5-0.8,1.7-1.7c0-0.6-0.4-1.2-0.9-1.4c0.4-0.2,0.7-0.7,0.7-1.2
			c-0.2-1-1.2-1.7-2.2-1.6c-0.8,0.1-1.4,0.8-1.6,1.6c0,0.5,0.3,1,0.7,1.2C73.3,71.2,72.9,71.8,72.9,72.4z M75,70.3
			c-0.3,0-0.5-0.2-0.5-0.5c0-0.3,0.2-0.5,0.5-0.5c0.3,0,0.5,0.2,0.5,0.5c0,0,0,0,0,0C75.5,70.1,75.3,70.3,75,70.3
			C75,70.3,75,70.3,75,70.3z M75,72.8c-0.3,0-0.6-0.3-0.6-0.6c0-0.3,0.3-0.6,0.6-0.6c0.3,0,0.6,0.3,0.6,0.6
			C75.6,72.5,75.3,72.8,75,72.8z"/>
		<path d="M83.1,68.4l-1.2,1.5c-0.5,0.6-0.8,1.4-0.9,2.2c0,0.6,0.3,1.2,0.8,1.5c0.5,0.3,1,0.5,1.6,0.5c1.2,0.1,2.3-0.7,2.4-1.9
			c0,0,0-0.1,0-0.1c0.1-1-0.7-1.9-1.7-2c0,0-0.1,0-0.1,0c-0.2,0-0.4,0-0.5,0.1l1.4-1.7L83.1,68.4z M83.3,71.2c0.4,0,0.8,0.4,0.8,0.8
			c0,0.4-0.4,0.8-0.8,0.8c-0.4,0-0.8-0.4-0.8-0.8S82.9,71.2,83.3,71.2C83.3,71.2,83.3,71.2,83.3,71.2z"/>
		<path d="M89.3,72.4c0.3,1.2,1.4,1.9,2.6,1.7c0.8-0.2,1.5-0.8,1.7-1.7c0-0.6-0.4-1.2-0.9-1.4c0.4-0.2,0.7-0.7,0.7-1.2
			c-0.2-1-1.2-1.7-2.2-1.6c-0.8,0.1-1.4,0.8-1.6,1.6c0,0.5,0.3,1,0.7,1.2C89.7,71.2,89.3,71.8,89.3,72.4z M91.4,70.3
			c-0.3,0-0.5-0.2-0.5-0.5c0-0.3,0.2-0.5,0.5-0.5c0.3,0,0.5,0.2,0.5,0.5c0,0,0,0,0,0C91.9,70.1,91.7,70.3,91.4,70.3
			C91.4,70.3,91.4,70.3,91.4,70.3z M91.4,72.8c-0.3,0-0.6-0.3-0.6-0.6c0-0.3,0.3-0.6,0.6-0.6c0.3,0,0.6,0.3,0.6,0.6
			C92,72.5,91.7,72.8,91.4,72.8z"/>
		<path class="st1" d="M144,71.7c3.8,0.1,7.5,0.6,11.2,1.7l5.3-1.7v15l-1.9,0.4l-3.4-5.3c-3.3-5.1-6.2-6.4-10.9-6.4
			c-9.8,0-15,8.4-15,23.8c0,14.9,6.2,22,15.8,22c4.9,0,9.4-0.8,15.4-5.5l2,2.8c-3.8,5.2-10.5,7.9-18.2,7.9
			c-14.4,0-24.5-9.6-24.5-27.2C119.8,81.3,130,71.7,144,71.7z"/>
		<path class="st1" d="M192.8,117.2c0,4.1,1.5,5.2,6.7,4.5l0.3,2c-2.1,1.9-4.9,2.9-7.7,2.7c-3.2,0-5.9-1.7-6.6-5.4h-0.4
			c-1.6,3.4-5.9,5.4-10.3,5.4c-6.8,0-11.3-3.6-11.3-11c0-7.8,6-11.8,16.1-11.8c1.8,0,3.6,0.2,5.3,0.5v-4.8c0-5.3-3.4-7.9-8.4-7.9
			c-3.9,0-7.7,1.4-10.8,3.8l-1.2-2.6c3.6-4.8,9.3-7.5,15.3-7.3c6.8,0,13,4,13,12L192.8,117.2z M182.6,107.5
			c-6.9,0-11.1,1.6-11.1,7.6c0,3.9,2.4,6.1,6.1,6.1c2.8,0.2,5.5-1,7.3-3.1v-10.6L182.6,107.5z"/>
		<path class="st1" d="M202.2,112.8c3.8,8.1,7.3,10.2,12.1,10.2c4.1,0,6.8-1.4,6.8-5.7c0-3.4-2-5.3-6.5-6.8l-5.1-1.8
			c-5.4-1.9-8.9-5.2-8.9-11.9c0-7.7,5.6-11.4,13.1-11.4c2.5,0.1,4.9,0.6,7.2,1.6l4.3-1.5L226,97l-1.9,0.6c-3.9-6.7-7-8.6-10.9-8.6
			s-6.1,2.2-6.1,5.4s1.6,5.3,6,6.8l5.1,1.7c5.9,2.1,9.6,5.2,9.6,12.1c0,8-6,11.3-14,11.3c-3.1,0-6.1-0.7-8.9-2.1l-4.1,2.1l-0.8-13
			L202.2,112.8z"/>
		<path class="st1" d="M248.4,89.1c-7.5,0-12.1,5.9-12.1,15.7s4.6,15.8,12.5,15.8c4.1,0,7.1-1.4,10.4-3.7l1.2,2.1
			c-3.9,5.8-8.9,7.5-14.8,7.5c-9.5,0-16.9-7.2-16.9-20.3c0-12.8,8.7-20.7,19.6-20.7c6.2,0,11.4,2.3,11.4,7.7c0,3.2-2.2,5.5-5.1,5.5
			c-2.7,0.2-5-1.9-5.1-4.5c0-0.2,0-0.3,0-0.5c0-1.6,0.8-3,2-4C250.5,89.3,249.4,89.1,248.4,89.1z"/>
		<path class="st1" d="M291.3,117.2c0,4.1,1.5,5.2,6.7,4.5l0.3,2c-2.1,1.9-4.9,2.9-7.7,2.7c-3.2,0-5.9-1.7-6.6-5.4h-0.4
			c-1.6,3.4-5.9,5.4-10.3,5.4c-6.8,0-11.3-3.6-11.3-11c0-7.8,6-11.8,16.1-11.8c1.8,0,3.6,0.2,5.3,0.5v-4.8c0-5.3-3.4-7.9-8.4-7.9
			c-3.9,0-7.7,1.4-10.8,3.8l-1.2-2.6c3.6-4.8,9.3-7.5,15.3-7.3c6.8,0,13,4,13,12V117.2z M281,107.5c-6.9,0-11.1,1.6-11.1,7.6
			c0,3.9,2.4,6.1,6.1,6.1c2.8,0.2,5.5-1,7.3-3.1v-10.6H281z"/>
		<path class="st1" d="M324.2,120.3c-2.7,3.9-7.3,6.2-12.1,6c-9.5,0-16.2-7.1-16.2-19.2c0-15.4,10.7-21.9,20.8-21.9
			c2.3-0.1,4.6,0.4,6.8,1.3V73.1l-5.2-4.1v-1l11.7-3.8h1.4v54.4l5.5,4.2v0.9l-11.8,2.7l-0.6-5.9L324.2,120.3z M316,120.6
			c2.7,0,5.4-0.9,7.6-2.5V91.4c-1.8-1.8-4.3-2.2-6.8-2.2c-7.4,0-12.4,6.2-12.4,16.5C304.3,115.4,308.9,120.6,316,120.6L316,120.6z"
			/>
		<path class="st1" d="M354.8,120.5c4,0.1,8-1.2,11.2-3.7l1.2,2.1c-3.2,4.9-7.8,7.5-14.8,7.5c-9.6,0-17.3-6.7-17.3-20.2
			s8.5-20.9,18.5-20.9c8.1,0,14,5,14,14.1c0,1.6-0.1,3.1-0.5,4.7h-24.5C342.7,114.5,347.3,120.5,354.8,120.5z M343,100.3h16.5
			c0.1-0.8,0.1-1.6,0.1-2.4c0-5.7-2.2-8.6-6.9-8.6C348.3,89.2,344.2,92.6,343,100.3z"/>
		<path class="st1" d="M371.4,112.8c3.8,8.1,7.3,10.2,12.1,10.2c4,0,6.8-1.4,6.8-5.7c0-3.4-2-5.3-6.5-6.8l-5.1-1.8
			c-5.4-1.9-8.9-5.2-8.9-11.9c0-7.7,5.6-11.4,13.1-11.4c2.5,0.1,4.9,0.6,7.2,1.6l4.3-1.5l0.7,11.6l-1.9,0.6c-3.9-6.7-7-8.6-10.9-8.6
			s-6.1,2.2-6.1,5.4s1.6,5.3,6,6.8l5.1,1.7c5.9,2.1,9.6,5.2,9.6,12.1c0,8-6,11.3-14,11.3c-3.1,0-6.1-0.7-8.9-2.1l-4,2.1l-0.8-13
			L371.4,112.8z"/>
	</g>
</g>
</svg>
