<?xml version="1.0" encoding="utf-8"?>
<!-- Generator: Adobe Illustrator 23.1.1, SVG Export Plug-In . SVG Version: 6.00 Build 0)  -->
<svg version="1.1" id="Layer_1" xmlns="http://www.w3.org/2000/svg" xmlns:xlink="http://www.w3.org/1999/xlink" x="0px" y="0px"
	 viewBox="0 0 250 80" style="enable-background:new 0 0 250 80;" xml:space="preserve">
<style type="text/css">
	.st0{fill:#FFFFFF;}
	.st1{fill:#D73F09;}
</style>
<path class="st0" d="M60.6,28c-0.3-2.3-1-4.5-2-6.5c-0.7-1.4-1.6-2.7-2.8-3.7c-1.5-1.3-3.4-2-5.4-2c-0.9,0-1.8,0.1-2.7,0.4l2.6-5.6
	l0.3-0.7L50,9.6L44.9,6l-0.2-0.2h-4.3c-0.9-0.2-1.8-0.6-2.5-1.2c-2.4-1.9-5.3-2.9-8.4-2.9c-3.1-0.1-6.1,0.9-8.5,3l-8.8,8.6L12,13.5
	l-5.1,5c-0.9,0.9-1.6,1.9-2.1,3.1c-1,2.1-1.7,4.2-2,6.5C1.8,33.4,2,38.8,3.3,44c1.5,5.5,4.1,10.6,7.6,15.1
	C15.8,65.3,22,70.5,29,74.5l2.2,1.3l0.5,0.3l0.5-0.3l2.2-1.3c7-4,13.1-9.3,18.2-15.5c3.5-4.5,6.1-9.6,7.6-15.1
	C61.3,38.7,61.5,33.3,60.6,28z"/>
<path d="M27.4,22.2h-7.9l-0.7,11.9c0.4,0.1,0.9,0.2,1.3,0.4C20.1,34.5,27.4,22.2,27.4,22.2z M21.3,49.2l-0.1,1l0.4,0.2
	c0.8,0.3,1.6,0.5,2.5,0.4c0.9,0,1.8-0.1,2.6-0.5v-1c-0.8,0.4-1.7,0.6-2.6,0.6c-0.8,0-1.7-0.2-2.5-0.5L21.3,49.2z M21.6,52.9
	l-0.3-0.2h-0.1v1l0.4,0.2c0.8,0.3,1.6,0.5,2.5,0.4c0.7,0,1.4-0.1,2-0.3v-0.9c-0.6,0.2-1.3,0.3-2,0.3C23.2,53.5,22.3,53.3,21.6,52.9z
	 M21.6,56.4l-0.3-0.2h-0.1v1l0.4,0.2c0.8,0.3,1.6,0.4,2.4,0.4c0.4,0,0.8,0,1.2-0.1v-0.9c-0.4,0.1-0.8,0.1-1.2,0.1
	C23.2,57,22.3,56.8,21.6,56.4z M30.5,5.8c0.7,0.1,1.3,0.4,1.9,0.7c0.6,0.3,1.2,0.7,1.7,1.1c0.8,0.7,1.7,1.3,2.6,1.8V7.9l-2-1.2
	c-0.6-0.4-1.3-0.7-1.9-1c-0.7-0.3-1.4-0.5-2.1-0.6C30,5,29.3,5,28.5,5.1h-0.1v0.6h0.1C29.1,5.6,29.8,5.7,30.5,5.8z M59.7,28.2
	c-0.3-2.2-1-4.3-1.9-6.3c-0.6-1.3-1.5-2.5-2.6-3.4c-1.3-1.1-3.1-1.8-4.8-1.8c-2.3,0-4.5,0.9-6.1,2.5l-2.6-2.8l0.4-0.9h3.6l-0.4,0.9
	h1.4l2.8-6.1l-5.1-3.6h-4c-1.1-0.2-2.2-0.7-3-1.4c-2.2-1.8-5-2.8-7.9-2.8c-2.9-0.2-5.7,0.8-7.9,2.7L7.4,19.1c-0.8,0.8-1.5,1.8-2,2.8
	c-0.9,2-1.6,4.1-1.9,6.3c-1,5.1-0.8,10.4,0.5,15.5c1.5,5.4,4,10.4,7.5,14.8c5,6.2,11.1,11.4,18,15.3l2.2,1.3l2.2-1.3
	c6.9-4,13-9.2,18-15.3c3.4-4.4,5.9-9.4,7.4-14.8C60.5,38.6,60.7,33.3,59.7,28.2z M22.4,6.1c0.6-0.6,2.6-2.4,7-2.4
	c2.6,0,5.2,0.9,7.2,2.6c1.3,0.9,2.4,1.6,3.8,1.6H44l4,2.8l-1.6,3.5h-3.6c-0.5,0-1-0.2-1.4-0.6c-0.5-0.5-0.8-1.1-0.9-1.8h-0.6
	c0,0.4,0,0.9,0.2,1.3c0.1,0.4,0.4,0.8,0.7,1.2c0.1,0.2,0.3,0.3,0.5,0.4l-0.9,1.9l2.4,2.6H41l-3.2-2.7h-0.7l2.3,2.7h-4.7L32,16.5
	h-1.6c0.3-0.7,0.5-1.5,0.5-2.3V13l-0.1-0.4c-0.1-0.6-0.3-1.1-0.6-1.6s-0.6-1-1-1.4l-0.1-0.1l-0.2-0.1l-0.3-0.3
	c-0.2-0.2-0.5-0.3-0.7-0.5c-1-0.6-1.9-0.9-2.8-1h-0.8v0.6c1,0,2,0.3,2.8,0.9c0.2,0.1,0.4,0.3,0.6,0.4l0.5,0.5
	c0.3,0.4,0.6,0.8,0.8,1.2s0.4,0.9,0.5,1.4v1.6c-0.1,1-0.4,1.9-1,2.6l-0.7,1h3.4l1.5,1.5h-14v-5.2h-4.5C14.2,14.1,22.4,6.1,22.4,6.1z
	 M16.1,24.2c-0.5,1.9-2.1,3.3-4,3.5h-0.5c-2.4,0-4.5-1.9-4.7-4.3v-0.3c0-1.3,0.5-2.5,1.5-3.4l4.5-4.4h4.5v4.4
	C17.4,19.7,16.1,24.2,16.1,24.2z M58,43.4c-0.9,3.1-2.1,6.2-3.7,9L54,52.8l-0.2,0.3l-0.3,0.4L53.3,54l-0.2,0.4l-0.5,0.7l-0.2,0.3
	L52,55.9l-0.2,0.3l-0.4,0.5l-0.2,0.2l-0.6,0.8l-0.5,0.7C48,61,45.6,63.5,43,65.7c-2.1,1.8-4.2,3.4-6.5,4.9c-1.1,0.7-2.3,1.5-3.5,2.2
	l-1.5,0.9L30,72.8c-6.7-3.9-12.7-9-17.6-15L12,57.3l-0.6-0.9L11.2,56l-0.5-0.7l-0.1-0.1l-0.5-0.8c-2.2-3.4-3.9-7.1-4.9-11
	c-1.2-4.9-1.4-10-0.5-15c0.2-1.5,0.6-3,1.1-4.4c0.1,0.9,0.5,1.8,1,2.5c-0.2,0.7-0.3,1.4-0.5,2.2c-0.2,1.2-0.4,2.5-0.4,3.7l8.2,3.8
	c0.1-0.2,0.3-0.4,0.5-0.6l0.4-0.4l-5-6.5c0.9,0.2,1.8,0.3,2.7,0.1l3.4,5.6c0.4-0.2,0.8-0.3,1.3-0.4l-0.5-8.4
	c0.2-0.4,0.3-0.7,0.4-1.1l1.2-4v-0.1h26.4l0.2-0.2c1.4-1.5,3.3-2.3,5.3-2.2c1.5,0,2.9,0.5,4,1.5c1,0.8,1.7,1.9,2.3,3
	c0.9,1.9,1.5,3.9,1.8,5.9C59.4,33.4,59.2,38.5,58,43.4L58,43.4z"/>
<circle cx="44.2" cy="10.4" r="0.7"/>
<path d="M40.4,10.8c0.1-0.5,0.5-0.9,1-1V9.1h-1.6v1.7H40.4z M56.8,28.7c-0.7-4.1-2.4-9-6.4-9c-1.9-0.1-3.7,0.9-4.6,2.5H31.2l-10,13
	c0.1,0.1,0.2,0.2,0.4,0.3c0.2,0.2,0.4,0.4,0.5,0.7l7.2-3.3l-0.6,2.6l-6,1.9c0.1,0.4,0.2,0.9,0.2,1.4c-0.2,0-0.4-0.1-0.6-0.2
	s-0.4-0.2-0.6-0.2l-0.3-0.1L20.8,38c-0.5-0.2-1-0.4-1.5-0.4h-2.4c-0.5,0.1-1,0.2-1.5,0.4l-0.6,0.3l-0.3,0.1
	c-0.2,0.1-0.4,0.2-0.6,0.2c-0.2,0.1-0.4,0.1-0.6,0.2c0-0.5,0.1-1,0.2-1.4l-7.7-2.5c0,0.9,0,1.8,0.1,2.7v1.3h0.8L7.2,39
	c0.5,0.1,1.1,0.3,1.5,0.6c1,0.5,2.1,0.8,3.2,0.8s2.2-0.2,3.2-0.8c0.2-0.1,0.5-0.2,0.7-0.3c0.5-0.2,1.1-0.3,1.7-0.3h0.7
	c0.5,0,1.1,0.1,1.6,0.3c0.3,0.1,0.5,0.2,0.8,0.3c1,0.5,2.1,0.8,3.2,0.8s2.2-0.2,3.2-0.8l0.5-0.2l-0.3,1.2l1.1-0.2L28,41.7
	c-0.6,0.1-1.1,0.3-1.6,0.6c-0.9,0.5-1.8,0.7-2.8,0.7s-1.9-0.2-2.8-0.7c-1-0.5-2.1-0.8-3.2-0.8s-2.2,0.2-3.2,0.8
	c-0.9,0.5-1.8,0.7-2.8,0.7s-1.9-0.2-2.8-0.7c-0.5-0.3-1-0.5-1.6-0.6c-0.3,0-0.5-0.1-0.8-0.1c0.1,0.3,0.1,0.6,0.2,0.9h0.8L8,42.7
	c0.3,0.1,0.7,0.3,1,0.4c1,0.5,2.1,0.8,3.2,0.8s2.2-0.2,3.2-0.8c0.9-0.5,1.8-0.7,2.8-0.7s1.9,0.2,2.8,0.7c1,0.5,2.1,0.8,3.2,0.8
	s2.2-0.2,3.2-0.8c0.3-0.2,0.7-0.3,1-0.4l-0.6,2.6c-0.3,0.1-0.6,0.3-0.9,0.4c-0.8,0.5-1.8,0.7-2.7,0.7s-1.9-0.2-2.7-0.7
	c-1-0.5-2.1-0.8-3.2-0.8s-2.2,0.2-3.2,0.8c-1.1,0.3-2.1,0.5-3,0.5s-1.9-0.2-2.7-0.7l-0.6-0.3c-0.4-0.2-0.9-0.3-1.3-0.4
	c0.2,0.5,0.3,0.9,0.5,1.4c0.8,2,1.7,3.9,2.8,5.8l0.1,0.3l0.2,0.4l0.2,0.3l0.2,0.4l0.2,0.3l0.2,0.4l0.4,0.6l0.3,0.4l0.2,0.3l0.3,0.4
	l0.2,0.2l0.5,0.7c4.8,5.8,10.6,10.8,17.2,14.5l0.6,0.4l0.6-0.4c6.6-3.8,12.4-8.7,17.1-14.6c0.3-0.3,0.5-0.7,0.8-1l0.1-0.1
	c0.2-0.3,0.5-0.7,0.7-1l0.1-0.1c0.5-0.7,1-1.5,1.4-2.2c1.2-2,2.1-4,2.9-6.1c0.2-0.4,0.3-0.8,0.4-1.2c-0.5,0.1-0.9,0.2-1.3,0.4h-0.1
	l-0.6,0.3c-1.7,0.9-3.7,0.9-5.4,0c-2-1-4.4-1-6.5,0c-1.7,0.9-3.7,0.9-5.4,0c-0.3-0.1-0.6-0.3-0.9-0.4l-1-4.8l1.2,0.2L35,37.4
	l3.8-3.7l2.5,1.8l3.9-3.9l3.8,4l2.5-1.8l5.6,5.6c0-0.4,0.1-0.8,0.1-1.2v-0.4C57.4,34.7,57.3,31.7,56.8,28.7z M49.5,29.3l0.1-0.2H51
	l0.4-1.4h0.2L52,29h1.4l0.1,0.2L52.3,30l0.4,1.4l-0.2,0.1l-1.2-0.8l-1.2,0.8l-0.2-0.1l0.4-1.4C50.3,30,49.5,29.3,49.5,29.3z
	 M46.5,29.1l-0.2,0.1l-1.2-0.8L44,29.2l-0.2-0.1l0.4-1.4L43,26.9l0.1-0.2h1.4l0.5-1.4h0.2l0.4,1.4H47l0.1,0.2L46,27.8
	C46,27.8,46.5,29.1,46.5,29.1z M40,31.5l-0.2,0.1l-1.2-0.8l-1.2,0.8l-0.2-0.1l0.4-1.4l-1.2-0.8l0.1-0.2h1.4l0.4-1.4h0.2l0.4,1.3h1.4
	l0.1,0.2L39.2,30L40,31.5z M34.8,47.5l-1.4-0.3l1.9,9.2l-3.7-1.5l-3.7,1.5l1.9-9.2l-1.4,0.3l1.8-8.8l-1.1,0.2l2.3-12.2h0.2L34,38.9
	l-1.1-0.2C32.9,38.7,34.8,47.5,34.8,47.5z M32.3,57.6l0.3,8.7h-2.1l0.3-8.7v-1.4l0.7-0.3l0.7,0.3C32.2,56.2,32.3,57.6,32.3,57.6z
	 M29.8,60.1v0.6c-0.7,0-1.4,0.2-2,0.5c-1.1,0.6-2.4,0.9-3.7,0.9c-1.2,0-2.5-0.2-3.5-0.8l-0.1-0.1L20,61h-0.1
	c-0.2-0.1-0.3-0.1-0.5-0.2l0.5-0.4l0.1-0.1c0.3,0.1,0.5,0.2,0.8,0.3l0.3,0.2c0.9,0.4,1.8,0.6,2.8,0.6c1.1,0,2.2-0.2,3.2-0.8
	c0.8-0.4,1.7-0.7,2.6-0.7C29.7,59.9,29.8,60.1,29.8,60.1z M42,60.7l0.3-0.2c0.2-0.1,0.5-0.2,0.8-0.3l0.7,0.6
	c-0.2,0.1-0.4,0.1-0.5,0.2L43,61.2l-0.1,0.1c-1.1,0.6-2.3,0.8-3.5,0.8c-1.3,0-2.6-0.3-3.7-0.9c-0.6-0.3-1.3-0.5-2-0.5v-0.8
	c0.9,0,1.8,0.2,2.6,0.7c1,0.5,2.1,0.8,3.2,0.8C40.2,61.3,41.1,61.1,42,60.7z M27.3,46.6L26.8,49l1.5-0.3l-2.1,9.8l3.9-1.9L30,57.9
	L29.9,59c-1.1,0-2.1,0.2-3,0.8C26,60.2,25,60.4,24,60.4c-0.9,0-1.8-0.2-2.6-0.6l-0.2-0.1c-0.3-0.1-0.6-0.3-0.9-0.4v-12L19.5,48v11.6
	l-0.8,0.7V47.5l1.5-1.2h0.1l0.3,0.1l0.1,0.1c0.2,0.1,0.5,0.2,0.8,0.3c0.8,0.3,1.6,0.4,2.5,0.4C25.2,47.4,26.3,47.1,27.3,46.6z
	 M35.9,46.6c1,0.5,2.1,0.8,3.2,0.8c0.8,0,1.7-0.1,2.5-0.4c0.3-0.1,0.5-0.2,0.8-0.3l0.4-0.2h0.1l1.5,1.2v12.7l-0.8-0.7V48l-0.9-0.7
	v12.1c-0.3,0.1-0.6,0.2-0.9,0.4l-0.2,0.1c-0.8,0.4-1.7,0.6-2.6,0.6c-1,0-1.9-0.2-2.8-0.7s-2-0.8-3-0.8l-0.1-1.1L33,56.6l3.9,1.9
	l-0.3-1.3l-1.8-8.5l1.5,0.3C36.3,49,35.9,46.6,35.9,46.6z M41.6,50.3l0.4-0.2v-1h-0.1l-0.3,0.2c-0.8,0.4-1.6,0.5-2.5,0.5
	s-1.8-0.2-2.6-0.6v1C38.1,50.8,39.9,50.9,41.6,50.3z M41.6,52.9c-0.8,0.4-1.6,0.5-2.5,0.5c-0.7,0-1.4-0.1-2-0.3V54
	c0.6,0.2,1.3,0.3,2,0.3c0.8,0,1.7-0.1,2.5-0.4l0.4-0.2v-1h-0.1C41.9,52.7,41.6,52.9,41.6,52.9z M41.6,56.4c-0.8,0.4-1.6,0.5-2.5,0.5
	c-0.4,0-0.8,0-1.2-0.1v0.9c0.4,0.1,0.8,0.1,1.2,0.1c0.8,0,1.7-0.1,2.5-0.4l0.4-0.2v-1h-0.1C41.9,56.2,41.6,56.4,41.6,56.4z
	 M10.4,24.2l0.5,0.4l5.1-7v-0.9h-0.8L10.4,24.2z M39.3,41.8v-3h-1.2v0.8h0.4v2.2H39.3z M41.8,41c0.2,0.6,0.8,1,1.4,0.9
	c0.4-0.1,0.8-0.4,0.9-0.9c0-0.3-0.2-0.6-0.5-0.8c0.2-0.1,0.4-0.4,0.4-0.7c-0.1-0.6-0.6-1-1.2-0.9c-0.4,0.1-0.8,0.4-0.9,0.9
	c0,0.3,0.2,0.5,0.4,0.7C42,40.4,41.7,40.7,41.8,41z M42.9,39.9c-0.2,0-0.3-0.1-0.3-0.3s0.1-0.3,0.3-0.3s0.3,0.1,0.3,0.3
	C43.2,39.7,43.1,39.9,42.9,39.9z M42.9,41.2c-0.2,0-0.3-0.1-0.3-0.3s0.1-0.3,0.3-0.3s0.3,0.1,0.3,0.3S43.1,41.2,42.9,41.2
	C42.9,41.3,42.9,41.3,42.9,41.2z M47.3,38.8l-0.6,0.8c-0.3,0.3-0.5,0.8-0.5,1.2c0,0.3,0.2,0.6,0.4,0.8c0.3,0.2,0.6,0.3,0.9,0.3
	c0.6,0.1,1.2-0.4,1.3-1.1v-0.1c0-0.6-0.4-1-0.9-1.1h-0.4l0.8-1C48.3,38.6,47.3,38.8,47.3,38.8z M47.4,40.4c0.2,0,0.4,0.3,0.4,0.5
	s-0.2,0.3-0.4,0.4c-0.2,0-0.5-0.1-0.5-0.4C46.9,40.7,47,40.4,47.4,40.4C47.3,40.4,47.4,40.4,47.4,40.4z M50.7,41
	c0.1,0.6,0.8,1,1.4,0.9c0.4-0.1,0.8-0.4,0.9-0.9c0-0.3-0.2-0.6-0.5-0.8c0.2-0.1,0.4-0.4,0.4-0.7c-0.1-0.6-0.6-1-1.2-0.9
	c-0.4,0.1-0.8,0.4-0.9,0.9c0,0.3,0.2,0.5,0.4,0.7C50.9,40.3,50.7,40.7,50.7,41z M51.8,39.9c-0.2,0-0.3-0.1-0.3-0.3s0.1-0.3,0.3-0.3
	s0.3,0.1,0.3,0.3C52.1,39.7,52,39.9,51.8,39.9z M51.8,41.2c-0.2,0-0.3-0.1-0.3-0.3s0.1-0.3,0.3-0.3s0.3,0.1,0.3,0.3
	C52.2,41.1,52.1,41.2,51.8,41.2C51.9,41.3,51.9,41.3,51.8,41.2z"/>
<g>
	<path class="st1" d="M67.3,30c0-6.9,3.7-11.1,10.3-11.1S87.8,23.1,87.8,30s-3.7,11.1-10.3,11.1S67.3,36.8,67.3,30z M82.4,30
		c0-6.8-1.5-9.4-4.8-9.4s-4.8,2.6-4.8,9.4s1.5,9.3,4.8,9.3S82.4,36.7,82.4,30z M98.2,39.6l-0.5,1.1h-8.9v-1l1.5-0.7V29l-1.5-2.4
		v-0.4l5.5-1.8H95l-0.1,3.7H95c0.7-1.9,2.2-3.7,4.6-3.7c1.5-0.2,2.9,0.9,3.1,2.5v0.4c0.1,1.4-0.9,2.6-2.3,2.7h-0.2
		c-1.3,0.1-2.4-0.9-2.5-2.2v-0.3c-1.1,0.5-2,1.3-2.7,2.3v9.1C95,38.9,98.2,39.6,98.2,39.6z M111.7,38c1.4,0,2.9-0.5,3.9-1.4l0.7,0.8
		c-1.2,2.6-3.4,3.7-6.5,3.7c-4.2,0-7.4-2.7-7.4-8.1s3.7-8.5,8.2-8.5c3.6,0,6.1,2.1,6.1,5.9c0,0.7-0.1,1.4-0.2,2.1H107
		C107.1,35.7,108.6,38,111.7,38z M107.1,30.7h5.2c0.1-0.4,0.1-0.9,0.1-1.4c0-1.7-0.5-3.2-2.2-3.2S107.4,27.6,107.1,30.7z
		 M128.2,37.5c3.5,0,5.7,1.7,5.7,5.2c0,4.5-4.4,6.1-9.2,6.1c-4.5,0-7.7-1-7.7-3.8c0-2.1,1.6-3,4.1-3.4v-0.1
		c-2.1-0.2-3.3-1.4-3.3-3.3s1.4-3,3.4-3.4c-2.1-0.5-3.5-2.4-3.4-4.6c0-3.2,2.4-5.7,7-5.7c2,0,4,0.4,5.8,1.2
		c-0.2-0.3-0.2-0.6-0.2-0.9c0-1,0.8-1.9,1.8-1.9h0.2c1.1,0,2,0.8,2,1.9V25c0.1,1.1-0.7,2.1-1.8,2.2h-0.4c-1-0.1-2-0.3-2.9-0.8v0.4
		c1.4,0.6,2.2,2,2.2,3.5c0,3.5-3.5,5.1-6.7,5.1c-0.8,0-1.5-0.1-2.2-0.3c-0.8,0.3-1.3,0.7-1.3,1.5s0.4,1.1,1.3,1.1L128.2,37.5
		L128.2,37.5z M120.9,44.3c0,1.9,1.4,2.8,3.9,2.8c2.9,0,5.1-0.8,5.1-3.1c0-1.4-0.7-2.2-2.9-2.2h-4.6
		C121.5,42.3,120.9,43.3,120.9,44.3z M124.7,26c-1.9,0-2.2,1.4-2.2,3.8s0.3,3.8,2.2,3.8s2.2-1.4,2.2-3.8S126.6,26,124.7,26z
		 M141.2,41.1c-4.9,0-8.2-2.8-8.2-8.3s3.2-8.3,8.2-8.3s8.2,2.8,8.2,8.3S146.2,41.1,141.2,41.1z M141.2,39.4c2.4,0,3.1-2.4,3.1-6.7
		s-0.7-6.6-3.1-6.6s-3.1,2.4-3.1,6.6S138.8,39.4,141.2,39.4z M168.6,39.6l-0.5,1.1h-8v-1l1.5-0.7v-8c0-2.4-1.2-3.2-2.6-3.2
		c-1.1,0-2.1,0.5-2.9,1.2v9.9l2.2,0.7l-0.5,1.1h-8v-1l1.5-0.7V29l-1.5-2.4v-0.4l5.5-1.8h0.8l-0.1,3.2h0.1c1.1-2,3.3-3.2,5.6-3.2
		c2.7,0,4.7,1.9,4.7,5.6v8.9C166.4,38.9,168.6,39.6,168.6,39.6z M183.3,36.3c0-2-1-2.9-3.4-3.9l-2.6-1.1c-2.7-0.9-4.5-3.5-4.3-6.3
		c0-4.4,3.4-6.2,6.9-6.2c1.6,0,3.1,0.3,4.6,0.8l1.8-0.8l0.3,6.1l-1,0.2l-1.8-2.3c-0.8-1.5-2.4-2.4-4.1-2.3c-1.5-0.1-2.8,1-2.9,2.5
		v0.3c0,1.7,0.8,2.7,3,3.5l2.7,1.1c3.4,1.4,4.9,3.3,4.9,6.7c0,4.4-3.3,6.5-7.2,6.5c-1.7,0-3.5-0.4-5-1.2l-2,1.2l-0.6-6.9l1.1-0.2
		l1.8,2.6c1.2,1.9,2.6,2.8,4.6,2.8c1.5,0.1,2.9-1,3.1-2.5C183.3,36.7,183.3,36.5,183.3,36.3L183.3,36.3z"/>
	<g>
		<path id="B" class="st1" d="M187.8,25.5l5.8-5h1.1v4.3h4.8l-0.3,1.9h-4.5v8.6c0,2.1,0.8,2.9,2.3,2.9c1,0,1.9-0.3,2.7-0.8l0.4,0.9
			c-1.2,1.8-3.2,2.8-5.3,2.7c-2.9,0-4.8-1.4-4.8-5.2v-9.2h-2.2C187.8,26.6,187.8,25.5,187.8,25.5z"/>
	</g>
	<path class="st1" d="M213.9,37.2c0,1.6,0.6,2,2.3,1.8l0.1,0.7c-1,0.9-2.4,1.4-3.8,1.3c-1.6,0-2.9-0.7-3.2-2.3h-0.1
		c-0.8,1.6-2.4,2.4-4.4,2.4c-2.4,0-4.5-1.3-4.5-4.4c0-3.2,2.6-4.8,6.6-4.8c0.7,0,1.5,0.1,2.2,0.3v-1.4c0-2.1-1.4-3.2-3.5-3.2
		c-1.5,0-3,0.4-4.4,1.1l-0.4-1.1c1.7-2.2,4.3-3.4,7.1-3.2c3,0,6,1.4,6,5.8L213.9,37.2L213.9,37.2z M208.3,33.6
		c-2.2,0-3.4,0.5-3.4,2.5c-0.1,1.1,0.6,2.1,1.7,2.3h0.4c0.8,0,1.5-0.2,2.1-0.8v-4H208.3z"/>
	<g>
		<path class="st1" d="M214.6,25.5l5.8-5h1.1v4.3h4.8l-0.3,1.9h-4.5v8.6c0,2.1,0.8,2.9,2.3,2.9c1,0,1.9-0.3,2.7-0.8l0.4,0.9
			c-1.2,1.8-3.2,2.8-5.3,2.7c-2.9,0-4.8-1.4-4.8-5.2v-9.2h-2.2C214.6,26.6,214.6,25.5,214.6,25.5z"/>
	</g>
	<path class="st1" d="M235.9,38c1.4,0,2.9-0.5,3.9-1.4l0.7,0.8c-1.2,2.6-3.4,3.7-6.5,3.7c-4.2,0-7.4-2.7-7.4-8.1s3.7-8.5,8.1-8.5
		c3.6,0,6.1,2.1,6.1,5.9c0,0.7-0.1,1.4-0.2,2.1h-9.4C231.3,35.7,232.8,38,235.9,38L235.9,38z M231.3,30.7h5.1
		c0.1-0.4,0.1-0.9,0.1-1.4c0-1.7-0.5-3.2-2.2-3.2S231.6,27.6,231.3,30.7L231.3,30.7z"/>
</g>
<path class="st0" d="M85.9,62.3c0,5.3-3.5,8-8.2,8c-4.9,0-8.3-2-8.3-7.6V50.5l-2.7-0.8l0.3-1.2h8.2l0.3,1.2l-2.7,0.8v11.7
	c0,4.2,1.8,6.1,5.3,6.1s5.7-1.9,5.7-6.4V50.5L81,49.7l0.3-1.2h7l0.3,1.2l-2.7,0.8L85.9,62.3L85.9,62.3z M105,68.9l-0.4,1.1h-7v-1
	l1.7-0.6v-9c0-2.3-1.5-2.8-2.7-2.8c-1.4,0-2.7,0.5-3.8,1.4v10.2l2.6,0.7L94.9,70h-7v-1l1.7-0.6V57.8l-1.8-2v-0.4l4.4-1.7h0.6
	l-0.1,3.1h0.2c1.1-1.9,3.1-3.1,5.3-3.1c2.1,0,4.3,1.3,4.3,5v9.5C102.5,68.2,105,68.9,105,68.9z M112.9,68.9l-0.5,1.1h-7v-1l1.7-0.6
	V57.8l-1.8-2v-0.4l4.4-1.7h0.6v14.6C110.3,68.3,112.9,68.9,112.9,68.9z M108.7,46.6c1.2,0,2.3,1,2.3,2.3c0,1.2-1,2.3-2.3,2.3
	c-1.2,0-2.3-1-2.3-2.3C106.4,47.7,107.4,46.7,108.7,46.6z M124,55.9l-2.4-0.8l0.2-1.1h5.9l0.2,1.1l-1.7,0.7L120.7,70h-1.8l-5.8-14
	l-1.6-1l0.3-1h6.7l0.3,1.1l-2.3,0.6l2.6,6.4c0.6,1.4,1,2.9,1.3,4.4h0.2c0.3-1.5,0.8-3,1.3-4.5C121.9,62,124,55.9,124,55.9z
	 M134.8,68c1.6,0,3.2-0.5,4.5-1.5l0.5,0.8c-1.3,2-3.6,3.2-6,3c-3.9,0-7-2.7-7-8.2s3.4-8.5,7.5-8.5c3.3,0,5.7,2,5.7,5.7
	c0,0.6-0.1,1.3-0.2,1.9h-9.9C129.9,65.5,131.8,68,134.8,68z M130,59.8h6.7v-1c0-2.3-0.9-3.5-2.8-3.5S130.5,56.7,130,59.8z
	 M148.8,68.9l-0.5,1.1h-7.7v-1l1.7-0.6V57.8l-1.8-2v-0.4l4.4-1.7h0.6l-0.1,3.8h0.1c0.9-2,2.6-3.8,4.6-3.8c1.7,0,2.7,1,2.7,2.4
	c0.1,1.1-0.7,2.1-1.9,2.2h-0.2c-1.1,0.1-2-0.8-2.1-1.9v-0.3c-1.3,0.7-2.4,1.7-3.1,3v9.3L148.8,68.9z M153.8,64.8
	c1.5,3.3,3,4.1,4.9,4.1c1.6,0,2.7-0.6,2.7-2.3c0-1.4-0.8-2.2-2.6-2.8l-2.1-0.7c-2.2-0.8-3.6-2.1-3.6-4.8c0-3.1,2.3-4.6,5.3-4.6
	c1,0,2,0.3,2.9,0.7l1.8-0.6l0.3,4.7l-0.8,0.3c-1.6-2.7-2.9-3.5-4.4-3.5c-1.2-0.2-2.3,0.7-2.5,1.9v0.3c0,1.3,0.7,2.2,2.4,2.8l2.1,0.7
	c2.4,0.8,3.9,2.1,3.9,4.9c0,3.2-2.4,4.6-5.7,4.6c-1.3,0-2.5-0.3-3.6-0.8l-1.6,0.8l-0.3-5.3L153.8,64.8L153.8,64.8z M172.5,68.9
	L172,70h-7v-1l1.7-0.6V57.8l-1.8-2v-0.4l4.4-1.7h0.6v14.6C169.9,68.3,172.5,68.9,172.5,68.9z M168.3,46.6c1.2,0,2.3,1,2.2,2.3
	c0,1.2-1,2.3-2.3,2.2c-1.2,0-2.2-1-2.2-2.2C166,47.7,167,46.7,168.3,46.6C168.2,46.6,168.2,46.6,168.3,46.6z M171.4,54.8l4.6-5h0.7
	v4.3h5.3l-0.3,1.7h-5.1v9.5c0,2,0.9,2.9,2.4,2.9c1,0,2.1-0.3,3-0.8l0.4,0.9c-1.3,1.4-3.1,2.1-5,2c-2.4,0-4-1.3-4-4.5v-10h-2.1
	L171.4,54.8L171.4,54.8z"/>
<path class="st0" d="M182,56l-1.6-1l0.3-1h6.8l0.3,1.1l-2.3,0.6l2.6,6.9c0.6,1.5,1,3,1.2,4.6h0.1l1.4-4.7l2.2-6.7l-2.4-0.8l0.2-1.1
	h5.8l0.2,1.1l-1.7,0.7l-5.1,14c-2.3,6.2-4.2,8.2-7.2,8.2c-1.9,0-2.9-1.1-2.9-2.5c-0.1-1.1,0.7-2,1.8-2.1c0,0,0.1,0,0.1,0h0.2
	c1,0,1.8,0.7,1.9,1.7v0.2c0,0.4-0.1,0.9-0.4,1.2c1.5,0,3.4-2.7,4.4-5.8L182,56z"/>
</svg>
