<svg xmlns="http://www.w3.org/2000/svg" viewBox="0 0 441.65 136.71"><defs><style>.cls-1{fill:#d73f09;}.cls-2{fill:#fff;}.cls-3{fill:#231f20;}</style></defs><title>osu-ecampus</title><g id="Layer_2" data-name="Layer 2"><g id="Art"><path class="cls-1" d="M119.87,44.25c0-7,3.77-11.25,10.44-11.25s10.39,4.29,10.39,11.25S136.93,55.5,130.31,55.5,119.87,51.21,119.87,44.25Zm15.28,0c0-6.85-1.51-9.47-4.84-9.47s-4.89,2.62-4.89,9.47,1.52,9.47,4.89,9.47S135.15,51.06,135.15,44.25Z"/><path class="cls-1" d="M151.14,54l-.48,1.15h-9v-1l1.51-.66V43.32l-1.55-2.44v-.4l5.59-1.85H148l-.11,3.77H148c.74-1.89,2.18-3.77,4.63-3.77a2.82,2.82,0,0,1,3.14,3,2.53,2.53,0,0,1-2.55,2.7,2.42,2.42,0,0,1-2.55-2.59A7.29,7.29,0,0,0,148,44.06v9.22Z"/><path class="cls-1" d="M164.83,52.39a5.82,5.82,0,0,0,4-1.44l.71.81c-1.19,2.67-3.45,3.74-6.59,3.74-4.22,0-7.55-2.7-7.55-8.22s3.77-8.65,8.25-8.65c3.63,0,6.14,2.1,6.14,6a10.68,10.68,0,0,1-.18,2.11h-9.47C160.2,50.1,161.68,52.39,164.83,52.39ZM160.2,45h5.22a6.63,6.63,0,0,0,.11-1.37c0-1.74-.48-3.29-2.22-3.29S160.5,41.84,160.2,45Z"/><path class="cls-1" d="M181.62,51.91c3.52,0,5.74,1.7,5.74,5.25,0,4.52-4.48,6.18-9.36,6.18-4.52,0-7.85-1-7.85-3.88,0-2.11,1.67-3.07,4.18-3.44v-.11c-2.1-.26-3.29-1.48-3.29-3.41s1.44-3.07,3.48-3.48a4.62,4.62,0,0,1-3.44-4.62c0-3.26,2.44-5.77,7.1-5.77a14.15,14.15,0,0,1,5.92,1.22,1.67,1.67,0,0,1-.22-.89,1.9,1.9,0,0,1,2-1.93,2,2,0,0,1,2,2.11,2.06,2.06,0,0,1-2.26,2.19,8.33,8.33,0,0,1-2.92-.78v.37A3.72,3.72,0,0,1,185,44.43c0,3.56-3.55,5.15-6.8,5.15a9,9,0,0,1-2.26-.26c-.78.26-1.37.67-1.37,1.48s.44,1.11,1.33,1.11Zm-7.4,6.92c0,2,1.45,2.89,4,2.89,2.92,0,5.14-.82,5.14-3.15,0-1.41-.74-2.26-2.92-2.26h-4.66A2.72,2.72,0,0,0,174.22,58.83ZM178,40.29c-1.88,0-2.22,1.44-2.22,3.85S176.15,48,178,48s2.26-1.44,2.26-3.81S180,40.29,178,40.29Z"/><path class="cls-1" d="M194.79,55.5c-5,0-8.28-2.85-8.28-8.44s3.29-8.43,8.28-8.43,8.29,2.84,8.29,8.43S199.79,55.5,194.79,55.5Zm0-1.7c2.48,0,3.15-2.45,3.15-6.74s-.67-6.73-3.15-6.73-3.14,2.44-3.14,6.73S192.32,53.8,194.79,53.8Z"/><path class="cls-1" d="M222.51,54.06,222,55.13h-8.11v-1l1.52-.7V45.32c0-2.4-1.26-3.22-2.63-3.22a4.31,4.31,0,0,0-2.92,1.26v10l2.18.71-.48,1.07h-8.06v-1l1.51-.66V43.29l-1.55-2.44v-.41l5.59-1.81h.77l-.11,3.21h.15a6.34,6.34,0,0,1,5.66-3.21c2.7,0,4.78,1.88,4.78,5.66v9.06Z"/><path class="cls-1" d="M237.94,50.73c0-2-1-3-3.48-3.93l-2.67-1.11a6.23,6.23,0,0,1-4.33-6.36c0-4.4,3.41-6.33,7-6.33a15,15,0,0,1,4.7.82L241,33l.33,6.14-1,.23L238.53,37a4.72,4.72,0,0,0-4.18-2.36,2.72,2.72,0,0,0-2.93,2.81c0,1.7.78,2.7,3,3.59l2.78,1.11c3.47,1.37,5,3.37,5,6.77,0,4.44-3.37,6.55-7.33,6.55a10.14,10.14,0,0,1-5.1-1.19l-2,1.19-.63-7,1.15-.22,1.81,2.62c1.22,1.89,2.59,2.89,4.7,2.89A2.84,2.84,0,0,0,237.94,50.73Z"/><path class="cls-1" d="M242.49,39.7l5.92-5.07h1.11V39h4.88l-.26,1.92h-4.59v8.73c0,2.15.82,3,2.3,3a5.33,5.33,0,0,0,2.73-.77l.38.88a6.18,6.18,0,0,1-5.37,2.78c-2.89,0-4.88-1.44-4.88-5.22V40.92h-2.22Z"/><path class="cls-1" d="M268.94,51.58c0,1.66.59,2,2.33,1.85l.11.74a5.27,5.27,0,0,1-3.88,1.33c-1.59,0-2.93-.67-3.22-2.37l-.11,0c-.78,1.67-2.48,2.41-4.48,2.41-2.48,0-4.51-1.37-4.51-4.44,0-3.26,2.59-4.85,6.69-4.85a9.61,9.61,0,0,1,2.22.3V45.1c0-2.15-1.37-3.22-3.55-3.22a8.88,8.88,0,0,0-4.4,1.11l-.45-1.07a8.61,8.61,0,0,1,7.18-3.29c3.07,0,6.07,1.36,6.07,5.88Zm-5.66-3.67c-2.18,0-3.44.56-3.44,2.52A2.07,2.07,0,0,0,262,52.72a3,3,0,0,0,2.14-.77v-4Z"/><path class="cls-1" d="M269.6,39.7l5.93-5.07h1.11V39h4.88l-.26,1.92h-4.59v8.73c0,2.15.82,3,2.3,3a5.39,5.39,0,0,0,2.74-.77l.36.88a6.15,6.15,0,0,1-5.36,2.78c-2.89,0-4.88-1.44-4.88-5.22V40.92H269.6Z"/><path class="cls-1" d="M291.18,52.39a5.82,5.82,0,0,0,4-1.44l.71.81c-1.19,2.67-3.45,3.74-6.59,3.74-4.22,0-7.55-2.7-7.55-8.22s3.77-8.65,8.25-8.65c3.63,0,6.14,2.1,6.14,6a10.68,10.68,0,0,1-.18,2.11h-9.47C286.55,50.1,288,52.39,291.18,52.39ZM286.55,45h5.22a6.63,6.63,0,0,0,.11-1.37c0-1.74-.48-3.29-2.22-3.29S286.85,41.84,286.55,45Z"/><path class="cls-1" d="M319.15,47.43c0,5.15-3.33,8.07-8.48,8.07s-8.88-2.18-8.88-7.92V35.41l-2.37-.85.26-1.19h9.22l.29,1.19-2.36.85v12.1c0,3.92,1.77,5.55,4.77,5.55s5.07-1.78,5.07-5.66v-12l-2.81-.85.29-1.19h7.07l.3,1.19-2.37.85Z"/><path class="cls-1" d="M339.64,54.06l-.48,1.07h-8.1v-1l1.52-.7V45.32c0-2.4-1.26-3.22-2.63-3.22A4.26,4.26,0,0,0,327,43.36v10l2.18.71-.48,1.07h-8.07v-1l1.52-.66V43.29l-1.55-2.44v-.41l5.58-1.81H327l-.11,3.21H327a6.34,6.34,0,0,1,5.66-3.21c2.7,0,4.77,1.88,4.77,5.66v9.06Z"/><path class="cls-1" d="M348.49,54.06,348,55.13h-8.07v-1l1.52-.66V43.29l-1.56-2.44v-.41l5.59-1.81h.81V53.35Zm-4.63-23.39a3,3,0,0,1,3,3,3,3,0,1,1-3-3Z"/><path class="cls-1" d="M360.7,41l-2.33-.71.18-1.25h6.25l.23,1.22-1.71.59-5.51,14.32h-3.66l-5.52-13.88L347,40.14l.26-1.14h8.55l.25,1.29-2.36.56,2.25,6.4a29.64,29.64,0,0,1,1.15,4.29h.15a31.72,31.72,0,0,1,1.29-4.33Z"/><path class="cls-1" d="M373,52.39A5.82,5.82,0,0,0,377,51l.71.81c-1.19,2.67-3.45,3.74-6.59,3.74-4.22,0-7.55-2.7-7.55-8.22s3.78-8.65,8.25-8.65c3.63,0,6.15,2.1,6.15,6a10.73,10.73,0,0,1-.19,2.11h-9.47C368.39,50.1,369.87,52.39,373,52.39ZM368.39,45h5.22a6.63,6.63,0,0,0,.11-1.37c0-1.74-.48-3.29-2.22-3.29S368.69,41.84,368.39,45Z"/><path class="cls-1" d="M388,54l-.48,1.15h-9v-1l1.52-.66V43.32l-1.55-2.44v-.4L384,38.63h.78l-.11,3.77h.15c.74-1.89,2.18-3.77,4.62-3.77a2.83,2.83,0,0,1,3.15,3,2.53,2.53,0,0,1-2.55,2.7,2.43,2.43,0,0,1-2.56-2.59,7.35,7.35,0,0,0-2.66,2.36v9.22Z"/><path class="cls-1" d="M393.48,49.84c2,3.25,3.33,4.07,5.4,4.07,1.48,0,2.55-.48,2.55-2,0-1.19-.7-1.85-2.37-2.37l-2.4-.78c-2.56-.78-4-2.26-4-5,0-3.59,2.48-5.18,5.81-5.18a8.24,8.24,0,0,1,3.51.74l2-.71.11,4.85-.89.22c-1.48-2.37-2.88-3.44-4.73-3.44-1.34,0-2.15.7-2.15,1.78s.55,1.63,1.85,2.07l2.66.89c3,1,4.41,2.55,4.41,5.36,0,3.59-2.52,5.11-6.55,5.11a10.2,10.2,0,0,1-4-.85l-1.93.85-.4-5.44Z"/><path class="cls-1" d="M414.38,54.06l-.48,1.07h-8.07v-1l1.52-.66V43.29l-1.55-2.44v-.41l5.58-1.81h.82V53.35Zm-4.62-23.39a3,3,0,0,1,3,3,3,3,0,1,1-3-3Z"/><path class="cls-1" d="M413.53,39.7l5.92-5.07h1.11V39h4.88l-.25,1.92H420.6v8.73c0,2.15.81,3,2.29,3a5.39,5.39,0,0,0,2.74-.77l.37.88a6.18,6.18,0,0,1-5.37,2.78c-2.88,0-4.88-1.44-4.88-5.22V40.92h-2.22Z"/><path class="cls-1" d="M425.33,41.25l-1.66-1.11.26-1.14h8.58l.22,1.29-2.37.56,2.41,6.1a16.3,16.3,0,0,1,1.15,4.37h.14a45.54,45.54,0,0,1,1.26-4.41l2-5.95L435,40.25l.18-1.25h6.22l.22,1.22-1.7.59-5.44,14.58c-1.93,5.18-4,7.81-7.7,7.81-2.33,0-3.37-1.37-3.37-3a2.34,2.34,0,0,1,2.48-2.56,2.16,2.16,0,0,1,2.3,2.3,2.22,2.22,0,0,1-.59,1.55c1.59-.15,3.29-2.37,4.1-4.88Z"/><path class="cls-2" d="M107.46,48.54a42.89,42.89,0,0,0-3.65-12,21,21,0,0,0-5.17-6.77,15.23,15.23,0,0,0-9.89-3.63,17.78,17.78,0,0,0-5,.69l5.34-11.42L78.2,7.69H70.34c-1.34,0-2.8-1-4.66-2.3C62.39,3.11,57.89,0,50.29,0,43.86,0,38.8,1.79,34.79,5.47c0,0-26,25.34-26.12,25.49h0a21.75,21.75,0,0,0-3.93,5.61,43.22,43.22,0,0,0-3.65,12,68.77,68.77,0,0,0,1,29.14,77.55,77.55,0,0,0,14,27.62c8.22,10.57,19.45,20.17,33.39,28.54l4.79,2.87,4.78-2.87c13.94-8.37,25.18-18,33.39-28.54a77.55,77.55,0,0,0,14-27.62A68.77,68.77,0,0,0,107.46,48.54Z"/><path class="cls-3" d="M46.59,37.83H32.1L30.79,59.65a8.44,8.44,0,0,1,2.31.69Z"/><path class="cls-3" d="M35.33,87.31l-.12,0V89l.72.31a11.32,11.32,0,0,0,4.5.8,11.23,11.23,0,0,0,4.81-.93V87.46a10,10,0,0,1-4.81,1.08,9.82,9.82,0,0,1-4.5-.94Z"/><path class="cls-3" d="M35.93,94.1l-.6-.29-.12,0v1.77l.72.31a11.32,11.32,0,0,0,4.5.8,12,12,0,0,0,3.69-.51V94.44a10,10,0,0,1-3.69.6A9.82,9.82,0,0,1,35.93,94.1Z"/><path class="cls-3" d="M35.93,100.58l-.6-.28-.12-.06V102c.23.11.47.22.72.32a11.5,11.5,0,0,0,4.5.8,14.88,14.88,0,0,0,2.15-.15v-1.63a12,12,0,0,1-2.15.18A9.67,9.67,0,0,1,35.93,100.58Z"/><path class="cls-3" d="M52.22,7.77A14.33,14.33,0,0,1,55.68,9a21,21,0,0,1,3.14,1.95,49.16,49.16,0,0,0,4.82,3.35V11.56c-1.23-.67-2.45-1.48-3.72-2.28a23.47,23.47,0,0,0-3.56-1.84,16.21,16.21,0,0,0-3.91-1,18.22,18.22,0,0,0-4-.08l-.23,0V7.42h.27A18.14,18.14,0,0,1,52.22,7.77Z"/><path class="cls-3" d="M105.88,48.81a41.12,41.12,0,0,0-3.5-11.52A19.26,19.26,0,0,0,97.61,31a13.65,13.65,0,0,0-8.86-3.25,15.24,15.24,0,0,0-11.13,4.56l-4.83-5.21.78-1.68h6.57l-.78,1.68h2.52L87.09,16l-9.4-6.68H70.34c-1.84,0-3.49-1.14-5.57-2.59-3.29-2.27-7.38-5.1-14.48-5.1-6,0-10.71,1.64-14.41,5L19.21,22.9h0s-9.37,9.15-9.39,9.18a20.27,20.27,0,0,0-3.64,5.21,41.12,41.12,0,0,0-3.5,11.52,67.16,67.16,0,0,0,1,28.45,76,76,0,0,0,13.74,27.06c8.09,10.41,19.17,19.88,33,28.15l4,2.37,3.95-2.37c13.78-8.27,24.87-17.74,33-28.15a76,76,0,0,0,13.74-27.06A67.16,67.16,0,0,0,105.88,48.81ZM37.45,8.3c1.19-1.09,4.81-4.42,12.84-4.42,6.39,0,10,2.5,13.18,4.7,2.32,1.61,4.32,3,6.87,3H77l7.26,5.16-3,6.43H74.69a4.49,4.49,0,0,1-2.62-1.05,4.78,4.78,0,0,1-1.61-3.31H69.31a6.58,6.58,0,0,0,.3,2.36,6,6,0,0,0,1.25,2.16,6.54,6.54,0,0,0,.82.76l-1.61,3.46,4.44,4.81H71.14l-5.85-5H63.93l4.3,5H59.59l-5-5h-3a11.81,11.81,0,0,0,1-4.24c0-.27,0-.53,0-.8l-.06-.8,0-.39-.07-.4-.14-.78a12.24,12.24,0,0,0-1.13-3,11.72,11.72,0,0,0-1.88-2.53l-.27-.28-.3-.26-.59-.5a12.27,12.27,0,0,0-1.3-.87,11.11,11.11,0,0,0-4.57-1.46A10.39,10.39,0,0,0,40.93,11v1.1a10.18,10.18,0,0,1,5.21,1.62,10.73,10.73,0,0,1,1.1.81c.17.15.33.31.49.47l.25.23.22.26a9.92,9.92,0,0,1,1.5,2.25,10.35,10.35,0,0,1,.83,2.54l.09.67,0,.33v1c0,.22,0,.44,0,.66a9.54,9.54,0,0,1-1.88,4.86l-1.35,1.81h6.24l2.71,2.71H30.67V22.9H22.48ZM25.89,41.55A8.47,8.47,0,0,1,18.5,47.9c-.27,0-.55,0-.84,0A8.49,8.49,0,0,1,9.2,40c0-.19,0-.38,0-.57a8.52,8.52,0,0,1,2.68-6.18l8.28-8.08h8.26v8.13Zm76.82,35.13a70.18,70.18,0,0,1-6.83,16.54h0L95.4,94l-.36.61-.48.79-.42.67-.45.73c-.28.43-.56.86-.85,1.29l-.34.5-.65.94-.38.54-.69,1-.34.47c-.35.46-.69.92-1,1.38h0l-1,1.27a101.25,101.25,0,0,1-13,13.3,130.14,130.14,0,0,1-11.92,9c-2,1.37-4.16,2.72-6.35,4l-2.78,1.67h0l-2.79-1.67c-13.53-8.12-24.4-17.4-32.32-27.59l-.68-.9-.46-.6-.81-1.12-.28-.39c-.31-.43-.6-.86-.9-1.29l-.15-.22c-.32-.48-.64-1-1-1.44a.35.35,0,0,0,0-.08,71.47,71.47,0,0,1-9-20.2A64.74,64.74,0,0,1,4.92,49.2,45.91,45.91,0,0,1,7,41.1a10.85,10.85,0,0,0,1.91,4.64c-.32,1.24-.59,2.55-.85,4q-.59,3.42-.82,6.79l15.05,7a8.53,8.53,0,0,1,.85-1.15,9.93,9.93,0,0,1,.73-.72l-9.1-11.87a10.42,10.42,0,0,0,5,.18L26,60.34a8.44,8.44,0,0,1,2.31-.69l-.93-15.47a10.18,10.18,0,0,0,.76-2l2.2-7.25.08-.26H78.61l.34-.38a12.75,12.75,0,0,1,9.8-4.2,11.44,11.44,0,0,1,7.4,2.73,17.09,17.09,0,0,1,4.19,5.53,39.17,39.17,0,0,1,3.29,10.89A64.74,64.74,0,0,1,102.71,76.68Z"/><path class="cls-3" d="M77.51,17.42a1.23,1.23,0,1,0-1.23-1.23A1.23,1.23,0,0,0,77.51,17.42Z"/><path class="cls-3" d="M70.46,16.84v0a2.5,2.5,0,0,1,1.91-1.89V13.76H69.3v3.08Z"/><path class="cls-3" d="M100.48,49.74c-1.3-7.52-4.39-16.49-11.73-16.49a9.39,9.39,0,0,0-8.47,4.58H53.49L35.19,61.7a8.08,8.08,0,0,1,.66.65,8.85,8.85,0,0,1,1,1.3L50,57.72l-1.08,4.75L37.81,66a9.34,9.34,0,0,1,.32,2.53,8.79,8.79,0,0,1-1.08-.3c-.37-.13-.72-.28-1.07-.44l-.5-.25-1-.47a11.14,11.14,0,0,0-2.76-.79l-.48-.07c-.25,0-.52,0-.8-.06l-.76,0h-.23l-.76,0c-.26,0-.52,0-.75.06l-.54.07A10.83,10.83,0,0,0,24.7,67c-.4.17-.76.35-1.11.51l-.54.26c-.33.15-.67.3-1,.43a9.31,9.31,0,0,1-1.08.3,9.64,9.64,0,0,1,.34-2.63L7.08,61.17c0,1.66.08,3.31.21,4.94h0c0,.17,0,.33,0,.49l.09,1h0c0,.25,0,.51.07.76H8.4l.44,0h.05c.34,0,.66.07.95.12h0a11,11,0,0,1,2.85,1A12,12,0,0,0,18.63,71a11.94,11.94,0,0,0,5.94-1.43c.43-.2.84-.4,1.28-.57a9,9,0,0,1,3-.61h1.3a8.83,8.83,0,0,1,2.9.57c.49.18.93.39,1.4.61A12,12,0,0,0,40.43,71a12,12,0,0,0,6-1.43c.33-.15.65-.31,1-.45l-.5,2.2L49,70.9l-.5,2.33a12.84,12.84,0,0,0-2.93,1.1,10.18,10.18,0,0,1-5.11,1.23,10.13,10.13,0,0,1-5.1-1.23,11.65,11.65,0,0,0-5.8-1.39,11.65,11.65,0,0,0-5.8,1.39,10.13,10.13,0,0,1-5.1,1.23,10.13,10.13,0,0,1-5.1-1.23,13.17,13.17,0,0,0-2.87-1.08h0l-.19,0-.28-.06-.33-.05-.21,0h0c-.43,0-.89-.09-1.4-.11.12.54.24,1.08.37,1.62a8.55,8.55,0,0,1,.93.1l.31,0,.21,0,.47.1,0,0c.17,0,.32.09.47.14a14.41,14.41,0,0,1,1.78.75,11.65,11.65,0,0,0,5.8,1.39,11.65,11.65,0,0,0,5.8-1.39,10.13,10.13,0,0,1,5.1-1.23,10.2,10.2,0,0,1,5.11,1.23,11.6,11.6,0,0,0,5.79,1.39,11.65,11.65,0,0,0,5.8-1.39A14.43,14.43,0,0,1,48.09,75l-1,4.8c-.62.23-1.15.48-1.66.72a9.66,9.66,0,0,1-5,1.2,9.62,9.62,0,0,1-5-1.2,12.15,12.15,0,0,0-5.95-1.42,12.1,12.1,0,0,0-5.94,1.42,9.66,9.66,0,0,1-5,1.2,9.69,9.69,0,0,1-5-1.2L12.62,80h0l-.06,0-.14-.06h0a10.58,10.58,0,0,0-2.48-.69c.28.84.58,1.68.89,2.52h0a68.67,68.67,0,0,0,5.05,10.59c.09.16.18.32.28.47s.29.49.44.74l.33.54.43.69.38.58.43.65c.13.21.27.42.41.63l.42.6.48.69.38.54.58.8.32.43L21.7,101c7.67,9.87,18.25,18.89,31.44,26.8l1.14.69,1.13-.69c13.19-7.91,23.77-16.93,31.44-26.8l0,0,1.39-1.86c.06-.07.11-.15.17-.23.46-.63.91-1.27,1.34-1.91l.11-.16c.92-1.36,1.8-2.73,2.62-4.13a68.88,68.88,0,0,0,5.32-11.16h0c.27-.74.53-1.47.78-2.21a10.72,10.72,0,0,0-2.48.69h0L96,80l-.08,0h0l-1.05.48a10.83,10.83,0,0,1-9.91,0,13.15,13.15,0,0,0-11.89,0,10.85,10.85,0,0,1-9.92,0c-.5-.24-1-.49-1.66-.72L59.58,70.9l2.11.43h0l-1.27-5.61,6.91-6.86,4.56,3.35L79,55l7.14,7.21,4.55-3.34,8.17,8.28,2.05,2.08c.1-.72.18-1.44.25-2.17h0l0-.31c0-.15,0-.29,0-.44h0A65.29,65.29,0,0,0,100.48,49.74ZM87.06,50.8l.13-.42H89.8l.81-2.48H91l.81,2.48h2.61l.13.42-2.11,1.53.81,2.48-.35.26-2.11-1.54-2.11,1.54-.36-.26.81-2.48Zm-5.58-.3-.35.26L79,49.22l-2.11,1.54-.35-.26L77.37,48l-2.12-1.53.14-.42H78l.8-2.48h.44l.81,2.48h2.61l.13.42L80.68,48Zm-11.8,4.31-.35.26-2.11-1.54-2.11,1.54-.35-.26.8-2.48L63.45,50.8l.13-.42h2.61L67,47.9h.44l.8,2.48h2.61l.14.42-2.12,1.53ZM60.1,84.11l-2.58-.53h0l3.55,16.94h0l-6.79-2.74-6.8,2.74h0L51,83.58l-2.58.53h0L51.82,68h0l-2,.4L54.07,46h.42l4.19,22.42-2-.4h0Zm-4.44,18.65.52,16H52.37l.56-16,.09-2.6,1.26-.63,1.29.64ZM51,107.37l-.08,1a7.76,7.76,0,0,0-3.69,1A13.73,13.73,0,0,1,40.43,111a13.54,13.54,0,0,1-6.52-1.48l-.26-.13-.69-.32-.1,0a7.08,7.08,0,0,0-.91-.34l1-.8h0l0,0,.26-.23c.5.19,1,.41,1.41.63l.6.28a11.28,11.28,0,0,0,5.2,1.1,11.66,11.66,0,0,0,5.8-1.38A10,10,0,0,1,51,107Zm22.33,1.16.6-.28c.46-.22.91-.44,1.41-.63l1.27,1.07a7.22,7.22,0,0,0-1,.38l-.1.05-.59.27-.26.13A13.54,13.54,0,0,1,68.12,111a13.73,13.73,0,0,1-6.79-1.61,8,8,0,0,0-3.71-1l-.08-1,0-.35a10.06,10.06,0,0,1,4.8,1.23,11.66,11.66,0,0,0,5.8,1.38A11.28,11.28,0,0,0,73.32,108.53Zm-26.94-26,.07,0-1,4.49h0l2.67-.54-3.84,18,7.16-3.55-.18,2.42-.16,2.09a11.47,11.47,0,0,0-5.59,1.39A10.19,10.19,0,0,1,40.43,108,9.85,9.85,0,0,1,35.66,107l-.33-.15a15.17,15.17,0,0,0-1.62-.71V83.86l-.07,0-1.53,1.16v21.4l-1.43,1.2h0V84.26l2.84-2.14.13.06.57.26.28.13c.43.21.88.43,1.39.63l0,0a11.86,11.86,0,0,0,4.5.78A12,12,0,0,0,46.38,82.57Zm15.8,0a13.19,13.19,0,0,0,10.44.65l0,0c.51-.2,1-.42,1.4-.63l.08,0c.25-.13.5-.25.76-.36l.13-.06,2.84,2.14v23.4h0l-1.43-1.2V85.07l-1.6-1.21V106.1a15.17,15.17,0,0,0-1.62.71l-.33.15A9.85,9.85,0,0,1,68.12,108,10.22,10.22,0,0,1,63,106.81a11.56,11.56,0,0,0-5.61-1.39l-.17-2.1-.18-2.42,7.2,3.56-.5-2.31L60.4,86.5l2.67.54-1-4.5Z"/><path class="cls-3" d="M72.62,89.34l.72-.31V87.26l-.12,0-.6.29a9.82,9.82,0,0,1-4.5.94,10,10,0,0,1-4.81-1.08v1.75a13,13,0,0,0,9.31.13Z"/><path class="cls-3" d="M72.62,94.1a9.82,9.82,0,0,1-4.5.94,10.06,10.06,0,0,1-3.69-.6v1.69a12,12,0,0,0,3.69.51,11.32,11.32,0,0,0,4.5-.8l.72-.31V93.76l-.12,0Z"/><path class="cls-3" d="M72.62,100.58a9.67,9.67,0,0,1-4.5,1,12,12,0,0,1-2.15-.18V103a14.88,14.88,0,0,0,2.15.15,11.5,11.5,0,0,0,4.5-.8c.25-.1.49-.21.72-.32v-1.77l-.12.06Z"/><polygon class="cls-3" points="15.46 41.56 16.36 42.18 25.72 29.39 25.72 27.76 24.17 27.76 15.46 41.56"/><polygon class="cls-3" points="68.5 73.87 68.5 68.37 66.18 68.37 66.18 69.7 66.95 69.7 66.95 73.87 68.5 73.87"/><path class="cls-3" d="M72.91,72.39a2.17,2.17,0,0,0,4.24,0A1.49,1.49,0,0,0,76.21,71a1.34,1.34,0,0,0,.72-1.21,1.93,1.93,0,0,0-3.8,0A1.35,1.35,0,0,0,73.86,71,1.49,1.49,0,0,0,72.91,72.39ZM75,70.32a.52.52,0,1,1,.51-.52A.51.51,0,0,1,75,70.32Zm0,2.46a.57.57,0,0,1-.56-.57.56.56,0,1,1,1.12,0A.57.57,0,0,1,75,72.78Z"/><path class="cls-3" d="M83.06,68.37,81.89,69.9A3.78,3.78,0,0,0,81,72.07a2.06,2.06,0,0,0,.75,1.53,2.53,2.53,0,0,0,1.57.48A2.17,2.17,0,0,0,85.71,72a1.85,1.85,0,0,0-1.8-2,1.82,1.82,0,0,0-.52.08l1.45-1.73Zm.27,2.86a.8.8,0,0,1,0,1.6.8.8,0,1,1,0-1.6Z"/><path class="cls-3" d="M89.29,72.39a2.17,2.17,0,0,0,4.24,0A1.49,1.49,0,0,0,92.59,71a1.34,1.34,0,0,0,.72-1.21,1.93,1.93,0,0,0-3.8,0A1.34,1.34,0,0,0,90.23,71,1.49,1.49,0,0,0,89.29,72.39Zm2.12-2.07a.52.52,0,1,1,.51-.52A.51.51,0,0,1,91.41,70.32Zm0,2.46a.57.57,0,0,1-.56-.57.56.56,0,1,1,1.12,0A.57.57,0,0,1,91.41,72.78Z"/><path class="cls-3" d="M132.34,89v16.4l3.46,1.31H146l6.31-10.93,2,.46-1.54,14H120.1l-.62-2.46,5.77-1.77V69.18l-5.77-1.77L120.1,65h32V77l-1.62.39-5.7-8.93H132.34V85.42h7.54l3-6.77,1.69.31V95.59l-1.61.3L140,89Z"/><path class="cls-3" d="M173.83,79.11c-6.39,0-10.32,5.08-10.32,13.4S167.44,106,174.21,106c3.46,0,6.08-1.24,8.93-3.16l1,1.77c-3.31,4.93-7.62,6.39-12.62,6.39-8.16,0-14.48-6.16-14.48-17.4,0-10.93,7.47-17.7,16.79-17.7,5.31,0,9.77,2,9.77,6.62a4.37,4.37,0,0,1-4.39,4.69,4.14,4.14,0,0,1-4.38-4.31,4.45,4.45,0,0,1,1.69-3.46A10.4,10.4,0,0,0,173.83,79.11Z"/><path class="cls-3" d="M210.77,103.13c0,3.54,1.31,4.46,5.7,3.85l.23,1.69a9.11,9.11,0,0,1-6.62,2.31,5.29,5.29,0,0,1-5.62-4.62h-.31c-1.38,2.93-5,4.62-8.77,4.62-5.77,0-9.7-3.08-9.7-9.39,0-6.7,5.16-10.09,13.78-10.09A21.5,21.5,0,0,1,204,92V87.89c0-4.54-2.92-6.78-7.16-6.78a15.17,15.17,0,0,0-9.24,3.24l-1-2.24a15.77,15.77,0,0,1,13.09-6.23c5.77,0,11.08,3.39,11.08,10.24ZM202,94.82c-5.93,0-9.47,1.38-9.47,6.46,0,3.39,2.08,5.24,5.24,5.24A7.66,7.66,0,0,0,204,103.9V94.82Z"/><path class="cls-3" d="M245.18,106.52l5.39,1.46-1,2.23H234.79v-2.16l3.62-1.3V87.5c0-4.31-2.31-5.92-5.16-5.92a12.47,12.47,0,0,0-7.62,3.23v21.71L231,108l-1,2.23H215.24v-2.16l3.62-1.23V84.42l-3.7-4.15v-.85l9.24-3.54h1.15l-.23,6.46h.31c3.39-5.23,7.31-6.54,10.78-6.54a8.24,8.24,0,0,1,8.46,6.54h.31c3.39-5.23,7.32-6.54,10.78-6.54,4.46,0,8.77,2.7,8.77,10.55v20.17l5.39,1.46-1,2.23H254.34v-2.16l3.62-1.3V87.5c0-4.31-2.31-5.92-5.16-5.92a12.47,12.47,0,0,0-7.62,3.23Z"/><path class="cls-3" d="M279.05,110.36v12.32l5.39,1.46-1,2.23H268.66v-2.15l3.62-1.31V84.42l-3.69-4.15v-.85l9.46-3.54h1.24L279.05,81h.31c1.77-3.24,5.54-5.16,9.85-5.16,7.47,0,13.4,5.85,13.4,16,0,12.47-8,19.09-18.94,19.09A19.33,19.33,0,0,1,279.05,110.36Zm0-4.77a7.24,7.24,0,0,0,5.39,2.08c6,0,11-4.23,11-13.93,0-8.39-4-12.7-9.31-12.7a9.73,9.73,0,0,0-7.09,2.77Z"/><path class="cls-3" d="M322.55,80.27v-.85l9.23-3.54H333v29l4.15,2.92v.85L327.24,111l-.69-5.54h-.31c-2.54,4.15-7.08,5.54-10.62,5.54-4.93,0-9.7-2.85-9.7-10.7V84.42l-3.69-4.15v-.85l9.23-3.54h1.23V98.82c0,5.39,2.47,7.46,5.85,7.46a10.33,10.33,0,0,0,7.7-3.69V84.42Z"/><path class="cls-3" d="M340.18,99.36c3.23,6.92,6.23,8.69,10.39,8.69,3.46,0,5.77-1.23,5.77-4.85,0-2.92-1.69-4.54-5.54-5.85l-4.39-1.53c-4.62-1.62-7.62-4.47-7.62-10.17,0-6.61,4.77-9.77,11.24-9.77a16.35,16.35,0,0,1,6.16,1.38l3.69-1.3.62,9.85-1.62.54c-3.31-5.7-6-7.31-9.31-7.31s-5.24,1.84-5.24,4.61,1.39,4.55,5.16,5.85L353.88,91c5.08,1.77,8.23,4.46,8.23,10.31,0,6.85-5.15,9.7-12,9.7a18.2,18.2,0,0,1-7.62-1.77L339,111l-.69-11.08Z"/></g></g></svg>