<svg xmlns="http://www.w3.org/2000/svg" viewBox="0 0 132.77 85.45"><defs><style>.cls-1{fill:none;stroke:#d4d0ce;stroke-linecap:round;stroke-linejoin:round;stroke-width:1.5px;}</style></defs><title>Asset 134</title><g id="Layer_2" data-name="Layer 2"><g id="Layer_1-2" data-name="Layer 1"><line class="cls-1" x1="108.07" y1="75.97" x2="119.02" y2="84.7"/><line class="cls-1" x1="132.02" y1="57.71" x2="118.47" y2="54.61"/><line class="cls-1" x1="132.02" y1="27.74" x2="118.74" y2="30.77"/><line class="cls-1" x1="119.02" y1="0.75" x2="108.67" y2="9"/><line class="cls-1" x1="23.14" y1="8.24" x2="13.75" y2="0.75"/><line class="cls-1" x1="12.55" y1="30.44" x2="0.75" y2="27.74"/><line class="cls-1" x1="0.75" y1="57.71" x2="12.82" y2="54.95"/><line class="cls-1" x1="13.75" y1="84.7" x2="23.74" y2="76.73"/><rect class="cls-1" x="32.12" y="15.62" width="68.52" height="54.21"/><path class="cls-1" d="M61.42,29a34.36,34.36,0,0,1,4.9-.35c8.94,0,17.44,3.64,22.74,9.73"/><path class="cls-1" d="M43.72,38.26a28.36,28.36,0,0,1,14.13-8.49"/><polyline class="cls-1" points="69.31 50.93 60.71 50.93 60.71 36.06 72.06 36.06 72.06 50.93"/><line class="cls-1" x1="53.7" y1="57.21" x2="79.07" y2="57.21"/><path class="cls-1" d="M42.69,19.8H93.12a3.35,3.35,0,0,0,3.34,3.35V62.3a3.35,3.35,0,0,0-3.34,3.35H86.45"/><path class="cls-1" d="M82.83,65.65H39.65A3.35,3.35,0,0,0,36.3,62.3V23.15a3.35,3.35,0,0,0,3.35-3.35"/></g></g></svg>