<svg width="164" height="105" viewBox="0 0 164 105" fill="none" xmlns="http://www.w3.org/2000/svg">
<path d="M133.497 93.4426L146.958 104.139" stroke="#D4D0CE" stroke-width="1.5" stroke-miterlimit="10" stroke-linecap="round" stroke-linejoin="round"/>
<path d="M163.012 70.9426L146.341 67.1312" stroke="#D4D0CE" stroke-width="1.5" stroke-miterlimit="10" stroke-linecap="round" stroke-linejoin="round"/>
<path d="M163.013 34.0574L146.588 37.8689" stroke="#D4D0CE" stroke-width="1.5" stroke-miterlimit="10" stroke-linecap="round" stroke-linejoin="round"/>
<path d="M146.958 0.983612L134.238 11.0656" stroke="#D4D0CE" stroke-width="1.5" stroke-miterlimit="10" stroke-linecap="round" stroke-linejoin="round"/>
<path d="M28.5274 10.082L16.9189 0.983612" stroke="#D4D0CE" stroke-width="1.5" stroke-miterlimit="10" stroke-linecap="round" stroke-linejoin="round"/>
<path d="M15.4371 37.377L0.988281 34.0574" stroke="#D4D0CE" stroke-width="1.5" stroke-miterlimit="10" stroke-linecap="round" stroke-linejoin="round"/>
<path d="M0.988281 70.9426L15.8076 67.6229" stroke="#D4D0CE" stroke-width="1.5" stroke-miterlimit="10" stroke-linecap="round" stroke-linejoin="round"/>
<path d="M16.9189 104.139L29.2683 94.3032" stroke="#D4D0CE" stroke-width="1.5" stroke-miterlimit="10" stroke-linecap="round" stroke-linejoin="round"/>
<path d="M44.5811 59.7541V18.8115C44.5811 16.7213 46.1865 15.123 48.2859 15.123H115.714C117.813 15.123 119.418 16.7213 119.418 18.8115V48.0738" stroke="#D4D0CE" stroke-width="1.5" stroke-miterlimit="10" stroke-linecap="round" stroke-linejoin="round"/>
<path d="M91.2621 73.5246H43.7169C41.494 73.5246 39.6416 75.3689 39.6416 77.582C39.6416 79.7951 41.494 81.6393 43.7169 81.6393" stroke="#D4D0CE" stroke-width="1.5" stroke-miterlimit="10" stroke-linecap="round" stroke-linejoin="round"/>
<path d="M51.127 81.6394H93.8559" stroke="#D4D0CE" stroke-width="1.5" stroke-miterlimit="10" stroke-linecap="round" stroke-linejoin="round"/>
<path d="M115.467 46.1065V19.6721H48.4102V59.7541H93.2385" stroke="#D4D0CE" stroke-width="1.5" stroke-miterlimit="10" stroke-linecap="round" stroke-linejoin="round"/>
<path d="M74.7139 77.582H89.2862" stroke="#D4D0CE" stroke-width="1.5" stroke-miterlimit="10" stroke-linecap="round" stroke-linejoin="round"/>
<path d="M48.4098 59.7541H44.5814L39.8887 75.9836" stroke="#D4D0CE" stroke-width="1.5" stroke-miterlimit="10" stroke-linecap="round" stroke-linejoin="round"/>
<path d="M133.497 77.8279C130.78 85.082 123.618 90.3689 115.344 90.3689C104.6 90.3689 95.9551 81.7623 95.9551 71.0656C95.9551 60.3689 104.6 51.6393 115.344 51.6393C126.088 51.6393 134.732 60.2459 134.732 70.9426" stroke="#D4D0CE" stroke-width="1.5" stroke-miterlimit="10" stroke-linecap="round" stroke-linejoin="round"/>
<path d="M124.729 64.3033L114.849 77.582L112.997 80.041C112.75 80.4098 112.38 80.5328 112.009 80.5328C111.639 80.5328 111.268 80.2869 111.021 80.041L109.169 77.582L105.464 72.541" stroke="#D4D0CE" stroke-width="1.5" stroke-miterlimit="10" stroke-linecap="round" stroke-linejoin="round"/>
<path d="M47.792 66.7623H87.4336" stroke="#D4D0CE" stroke-width="1.5" stroke-miterlimit="10" stroke-linecap="round" stroke-linejoin="round"/>
</svg>
