<svg xmlns="http://www.w3.org/2000/svg" viewBox="0 0 132.77 85.45"><defs><style>.cls-1{fill:none;stroke:#d4d0ce;stroke-linecap:round;stroke-linejoin:round;stroke-width:1.5px;}</style></defs><title>Asset 131</title><g id="Layer_2" data-name="Layer 2"><g id="Layer_1-2" data-name="Layer 1"><line class="cls-1" x1="108.07" y1="75.97" x2="119.02" y2="84.7"/><line class="cls-1" x1="132.02" y1="57.71" x2="118.47" y2="54.61"/><line class="cls-1" x1="132.02" y1="27.74" x2="118.74" y2="30.77"/><line class="cls-1" x1="119.02" y1="0.75" x2="108.67" y2="9"/><line class="cls-1" x1="23.14" y1="8.24" x2="13.75" y2="0.75"/><line class="cls-1" x1="12.55" y1="30.44" x2="0.75" y2="27.74"/><line class="cls-1" x1="0.75" y1="57.71" x2="12.82" y2="54.95"/><line class="cls-1" x1="13.75" y1="84.7" x2="23.74" y2="76.73"/><path class="cls-1" d="M101.41,65.4a15.72,15.72,0,1,1,1-5.55"/><path class="cls-1" d="M94.47,53.2l-8,10.85-1.51,2a.88.88,0,0,1-1.5,0l-1.51-2-3-4.07"/><path class="cls-1" d="M33.09,36.61a6.48,6.48,0,0,1-2.74-4.87c0-5.5,9.6-10,21.44-10s21.44,4.46,21.44,10-9.6,10-21.44,10a40.07,40.07,0,0,1-12.41-1.84"/><path class="cls-1" d="M60.26,52.68a43.44,43.44,0,0,1-8.47.8C40,53.48,30.35,49,30.35,43.53"/><path class="cls-1" d="M73.23,43.53c0,3-2.8,5.64-7.25,7.46"/><path class="cls-1" d="M67.29,62.84a46.61,46.61,0,0,1-15.5,2.65c-11.84,0-21.44-4.46-21.44-10"/><line class="cls-1" x1="30.35" y1="31.74" x2="30.35" y2="55.53"/><line class="cls-1" x1="73.23" y1="31.74" x2="73.23" y2="44.5"/><path class="cls-1" d="M52.64,17.05c2.6-4.14,10.83-7.17,20.59-7.17,11.84,0,21.44,4.46,21.44,10s-9.6,10-21.44,10"/><path class="cls-1" d="M91.8,36.61c-3.71,3-10.63,5-18.57,5"/><line class="cls-1" x1="94.67" y1="19.84" x2="94.67" y2="42.46"/></g></g></svg>